<?xml version="1.0" encoding="UTF-8"?>
<svg id="Layer_1" data-name="Layer 1" xmlns="http://www.w3.org/2000/svg" viewBox="0 0 36 36">
  <defs>
    <style>
      .cls-1 {
        fill: #ff8900;
      }
    </style>
  </defs>
  <path class="cls-1" d="m34.75,16.75h-1.56c-.61-7.41-6.53-13.33-13.94-13.94v-1.56c0-.69-.56-1.25-1.25-1.25s-1.25.56-1.25,1.25v1.56c-7.41.61-13.34,6.53-13.94,13.94h-1.56C.56,16.75,0,17.31,0,18s.56,1.25,1.25,1.25h1.56c.61,7.41,6.53,13.34,13.94,13.94v1.56c0,.69.56,1.25,1.25,1.25s1.25-.56,1.25-1.25v-1.56c7.41-.61,13.33-6.53,13.94-13.94h1.56c.69,0,1.25-.56,1.25-1.25s-.56-1.25-1.25-1.25Zm-4.06,0h-4.97c-.53-3.32-3.15-5.93-6.47-6.47v-4.97c6.03.59,10.85,5.4,11.44,11.44Zm-13.94-11.44v4.97c-3.32.53-5.93,3.15-6.47,6.47h-4.97c.59-6.03,5.4-10.85,11.44-11.44Zm-11.44,13.94h4.97c.53,3.32,3.15,5.93,6.47,6.47v4.97c-6.03-.59-10.85-5.4-11.44-11.44Zm13.94,11.44v-4.97c3.32-.53,5.93-3.15,6.47-6.47h4.97c-.59,6.03-5.4,10.85-11.44,11.44Z"/>
</svg>