<?xml version="1.0" encoding="UTF-8"?>
<svg id="Layer_1" data-name="Layer 1" xmlns="http://www.w3.org/2000/svg" viewBox="0 0 36 36">
  <defs>
    <style>
      .cls-1 {
        fill: #ff8900;
      }
    </style>
  </defs>
  <path class="cls-1" d="m24.79,0h-13.64c-.92,0-1.66.74-1.66,1.66v13.64c0,.92.74,1.66,1.66,1.66h13.64c.92,0,1.66-.74,1.66-1.66V1.67C26.45.75,25.71,0,24.79,0Zm-10.37,12.58c-.55,0-1-.45-1-1s.45-1,1-1,1,.45,1,1-.45,1-1,1Zm3.55-3.1c-.55,0-1-.45-1-1s.45-1,1-1,1,.45,1,1-.45,1-1,1Zm3.55-3.1c-.55,0-1-.45-1-1s.45-1,1-1,1,.45,1,1-.45,1-1,1Z"/>
  <path class="cls-1" d="m15.3,19.03H1.66c-.92,0-1.66.74-1.66,1.66v13.64c0,.92.74,1.66,1.66,1.66h13.64c.92,0,1.66-.74,1.66-1.66v-13.64c0-.92-.74-1.66-1.66-1.66Zm-10.37,12.58c-.55,0-1-.45-1-1s.45-1,1-1,1,.45,1,1-.45,1-1,1Zm0-6.19c-.55,0-1-.45-1-1s.45-1,1-1,1,.45,1,1-.45,1-1,1Zm7.09,6.19c-.55,0-1-.45-1-1s.45-1,1-1,1,.45,1,1-.45,1-1,1Zm0-6.19c-.55,0-1-.45-1-1s.45-1,1-1,1,.45,1,1-.45,1-1,1Z"/>
  <path class="cls-1" d="m34.34,19.03h-13.64c-.92,0-1.66.74-1.66,1.66v13.64c0,.92.74,1.66,1.66,1.66h13.64c.92,0,1.66-.74,1.66-1.66v-13.64c0-.92-.74-1.66-1.66-1.66Zm-10.37,12.58c-.55,0-1-.45-1-1s.45-1,1-1,1,.45,1,1-.45,1-1,1Zm0-6.19c-.55,0-1-.45-1-1s.45-1,1-1,1,.45,1,1-.45,1-1,1Zm3.55,3.1c-.55,0-1-.45-1-1s.45-1,1-1,1,.45,1,1-.45,1-1,1Zm3.55,3.1c-.55,0-1-.45-1-1s.45-1,1-1,1,.45,1,1-.45,1-1,1Zm0-6.19c-.55,0-1-.45-1-1s.45-1,1-1,1,.45,1,1-.45,1-1,1Z"/>
</svg>