<?xml version="1.0" encoding="utf-8"?>
<!-- Generator: Adobe Illustrator 25.2.1, SVG Export Plug-In . SVG Version: 6.00 Build 0)  -->
<svg version="1.1" id="Layer_1" xmlns="http://www.w3.org/2000/svg" xmlns:xlink="http://www.w3.org/1999/xlink" x="0px" y="0px"
	 viewBox="0 0 36 36" style="enable-background:new 0 0 36 36;" xml:space="preserve">
<style type="text/css">
	.st0{fill:#FF8900;}
</style>
<path class="st0" d="M34.5,12.9C34.5,12.9,34.5,12.9,34.5,12.9l0.1,0l0.6-0.6L35,11.9c-0.1-0.1-0.1-0.2-0.2-0.3
	c-0.4-0.6-0.6-1.3-0.8-2.1c-0.2-0.5-0.2-1.1,0.1-1.6c0.2-0.5,0.6-0.9,1.2-1.1c0.1-0.1,0.2-0.1,0.3-0.2L36,6.2l-0.5-0.4
	c-0.3-0.3-0.7-0.5-1.1-0.6c-0.2-0.1-0.5-0.1-0.7-0.1c-0.1-0.9-0.5-1.7-1.2-2.4c-0.7-0.8-1.7-1.2-2.8-1.3L29,1.3l0.2,0.4
	c-0.2-0.1-0.3-0.1-0.5-0.1c-0.8-0.1-1.6,0-2.4,0.3l-0.5,0.2l0.6,1c-0.1,0-0.3,0-0.4,0c-0.6,0-1.3,0.1-1.8,0.3l-0.3,0.1l0,0.3
	c0,0.6,0.1,1.2,0.4,1.7c0.1,0.1,0.2,0.3,0.3,0.4c-0.3,0.1-0.6,0.2-0.9,0.4c-0.5,0.2-1,0.3-1.4,0.5l-0.7,0.2l0.4,0.6
	c0.4,0.6,0.9,1,1.5,1.4c0.6,0.3,1.3,0.5,1.9,0.6c0.3,0.1,0.6,0.1,0.9,0c-0.4,1-0.6,2-0.7,3l-0.1,0.7l0.7-0.2c0,0.1,0,0.3-0.1,0.4
	c-0.1,0.6-0.2,1.2-0.6,1.8c-0.2,0.3-0.3,0.4-0.4,0.4c-0.1,0-0.2-0.1-0.5-0.3c-0.4-0.4-0.8-0.8-1.1-1.2c-0.5-0.8-1-1.6-1.6-2.8
	c-1-1.9-2.2-3.7-3.6-5.4c-1-1.2-2.2-2.2-3.5-3c-1.1-0.7-2.3-1.1-3.6-1.3C9.9,1.3,8.6,1.4,7.4,1.7C5.4,2.2,3.6,3.1,2.1,4.4l0.5,0.8
	L3.1,5c2.4-1.1,5.1-1.3,7.6-0.5c1.6,0.5,3.1,1.5,4.3,2.7c0.2,0.2,0.4,0.4,0.6,0.6c-0.9-0.6-1.8-1.2-2.8-1.7
	c-1.1-0.5-2.2-0.8-3.4-0.9C8.1,5.3,6.9,5.5,5.8,5.9C4.6,6.3,3.6,7,2.7,7.8c-0.9,0.8-1.7,1.7-2.4,2.7c-0.1,0.1-0.1,0.2-0.2,0.3
	c-0.1,0.1-0.1,0.3,0,0.6l0.3,0.5l0.5-0.3c0.2-0.1,0.4-0.3,0.6-0.4c1.4-1.1,3-1.9,4.7-2.3c1.1-0.2,2.2-0.3,3.3,0
	c1.1,0.2,2.1,0.7,3,1.3c0.4,0.3,0.9,0.6,1.3,1c-0.6-0.2-1.3-0.4-1.9-0.5c-1.7-0.3-3.5-0.1-5.1,0.6l0.2,1c1.6,0,3.1,0.3,4.5,0.9
	c0.8,0.3,1.5,0.8,2.2,1.3c-0.2,0-0.5-0.1-0.7-0.1c-1,0-2,0.1-2.9,0.5l0.1,1c3.1,0.3,5.2,2.1,6.4,5.7l0.2,0.4l0.4-0.1
	c0.5-0.1,1-0.3,1.5-0.4c-0.2,0.1-0.3,0.2-0.5,0.2c-1,0.5-2.1,0.9-3.1,1.3c-0.5,0.2-0.9,0.4-1.4,0.6l-0.8,0.3l0.7,0.5
	c0.1,0.1,0.2,0.1,0.3,0.2c2.8,1,5.8,1.4,8.8,1.4c0.1,0,0.1,0,0.2,0c1.2,0,2.3-0.2,3.4-0.5c-1.1,0.4-2.2,0.7-3.4,0.8l-1.1,0.1
	l0.9,0.7c1.8,1.5,2.1,3.5,2.3,5.7l0.2,1.8l2.6-5.9c0.1-0.2,0.2-0.3,0.3-0.5c0.1-0.1,0.3-0.2,0.5-0.3c1.6-0.5,3.1-1.4,4.3-2.6
	c1.2-1.2,2.1-2.7,2.5-4.3c0.6-2.1,0.5-4.4-0.2-6.5C35,14.1,34.8,13.5,34.5,12.9z M32.3,6.5c-0.1,0.2-0.3,0.3-0.5,0.3c0,0,0,0,0,0
	c-0.3,0-0.5-0.1-0.7-0.2c-0.2-0.1-0.3-0.3-0.3-0.5c0-0.2,0-0.3,0-0.4c0-0.1,0.1-0.2,0.2-0.3c0.1-0.1,0.2-0.2,0.3-0.2
	c0.1,0,0.3-0.1,0.4-0.1l0,0c0.2,0,0.4,0.1,0.6,0.2c0.2,0.1,0.3,0.3,0.3,0.6C32.5,6.2,32.4,6.4,32.3,6.5z"/>
</svg>
