<?xml version="1.0" encoding="UTF-8"?>
<svg id="Layer_1" data-name="Layer 1" xmlns="http://www.w3.org/2000/svg" viewBox="0 0 36 36">
  <defs>
    <style>
      .cls-1 {
        fill: #aeaeae;
      }
    </style>
  </defs>
  <path class="cls-1" d="m1.73,29.31l2.85-2.87c.39-.4.39-1.04,0-1.44-.39-.4-1.03-.4-1.43,0l-2.85,2.87c-.19.19-.3.46-.3.73,0,.56.46,1.01,1.01,1.01.27,0,.53-.11.72-.3Z"/>
  <path class="cls-1" d="m8.03,28.88c0-.56-.46-1.01-1.01-1.01-.27,0-.53.11-.71.3l-5.37,5.42c-.2.19-.3.46-.3.74,0,.56.46,1.01,1.01,1,.27,0,.53-.11.72-.3l5.37-5.42c.19-.19.3-.46.3-.73Z"/>
  <path class="cls-1" d="m9.45,31.36l-2.85,2.87c-.2.19-.3.46-.3.73,0,.56.46,1.01,1.01,1.01.27,0,.53-.11.72-.3l2.85-2.88c.4-.4.39-1.04,0-1.44-.4-.4-1.04-.4-1.43,0Z"/>
  <g>
    <path class="cls-1" d="m35.65.67l-.02-.12-.14-.14c-1.31-.26-2.63-.39-3.97-.38-5.69-.03-11.14,2.28-15.12,6.38-2.31,2.33-4.85,5.54-6.76,8.72l11.37,11.47c3.16-1.89,6.3-4.41,8.67-6.79,5.01-4.99,7.25-12.15,5.98-19.14Zm-6.47,14.57c-1.09,1.11-2.58,1.73-4.12,1.72-3.22,0-5.82-2.64-5.82-5.89,0-3.25,2.62-5.88,5.83-5.87,3.22,0,5.83,2.64,5.82,5.89,0,1.56-.61,3.05-1.71,4.15Z"/>
    <path class="cls-1" d="m17.39,35.74l5.35-2.91c.81-.44,1.35-1.26,1.43-2.19l.34-3.77c-2.4,1.65-4.89,3.08-7.12,3.98v4.89Z"/>
    <path class="cls-1" d="m5.44,18.81c.89-2.26,2.3-4.77,3.94-7.18l-3.7.34c-.92.08-1.74.63-2.17,1.44l-2.88,5.4h4.81Z"/>
    <path class="cls-1" d="m8.54,17.1c-.92,1.77-1.58,3.47-1.83,4.94l7.17,7.45c1.57-.23,3.34-.88,5.16-1.8l-10.5-10.59Z"/>
  </g>
</svg>