<?xml version="1.0" encoding="UTF-8"?>
<svg id="Layer_1" data-name="Layer 1" xmlns="http://www.w3.org/2000/svg" viewBox="0 0 36 36">
  <defs>
    <style>
      .cls-1 {
        fill: #aeaeae;
      }
    </style>
  </defs>
  <g id="Group_22428" data-name="Group 22428">
    <path id="Path_39301" data-name="Path 39301" class="cls-1" d="m34.03,18.55c-3.35-7.99-6.62-7.92-9.6-6.75-.67.26-1.25.72-1.67,1.32-.11.16-.29.24-.47.23h-8.35c-.19.02-.37-.07-.47-.23-.37-.52-.87-.94-1.45-1.21-.07-.05-.14-.09-.21-.12-.83-.33-1.72-.53-2.61-.59-.1,0-.21,0-.31.02h-.07c-.56.04-1.11.19-1.62.44h-.02c-.18.1-.36.2-.56.33l-.05.02c-.98.7-1.82,1.59-2.47,2.61-.29.41-.57.84-.82,1.27-.42.77-.88,1.65-1.32,2.64C-.41,23.83-.41,29.73.78,32.77c.27.9.86,1.67,1.67,2.16,2.63,1.06,5.67-2.03,7.51-5.06.8-1.35,2.24-2.19,3.81-2.2h8.46c1.58,0,3.03.84,3.82,2.2,1.85,3.04,4.88,6.19,7.5,5.06.83-.47,1.43-1.24,1.68-2.16,1.17-3.03,1.17-8.86-1.2-14.22Zm-21.87,2.72c0,.16-.06.31-.18.43-.11.11-.27.18-.43.18h-1.72v1.73c0,.33-.27.59-.6.59h-1.85c-.16,0-.31-.06-.42-.17-.11-.11-.17-.26-.17-.42v-1.8h-1.73c-.33,0-.59-.26-.6-.59v-1.98c0-.33.27-.59.6-.59h1.73v-1.62c0-.16.06-.31.17-.42.11-.11.26-.17.42-.17h1.98c.32,0,.58.27.59.59v1.73h1.6c.16,0,.32.06.43.18.11.11.18.27.18.43v1.9Zm8.28,4.48h-4.59c-.32,0-.58-.27-.59-.59,0-.16.06-.31.17-.43.11-.11.26-.18.42-.18h4.59c.33,0,.59.27.59.6-.02.32-.27.57-.59.59h0Zm7.14-9.29c.76,0,1.37.62,1.37,1.37,0,.76-.61,1.38-1.37,1.39-.37,0-.72-.15-.98-.41-.26-.26-.41-.61-.41-.98,0-.76.63-1.38,1.39-1.37Zm-2.66,5.24c-.37,0-.72-.15-.97-.41-.26-.26-.4-.61-.4-.98.01-.75.62-1.35,1.37-1.36.75,0,1.37.6,1.37,1.36,0,.37-.14.72-.39.98-.26.26-.61.41-.98.4h0Zm2.66,2.5c-.76,0-1.38-.61-1.39-1.37,0-.37.15-.72.41-.98.26-.26.61-.41.98-.41.76,0,1.38.63,1.37,1.39,0,.76-.62,1.37-1.37,1.37Zm2.65-2.5c-.37,0-.72-.15-.97-.41-.26-.26-.4-.61-.4-.98.01-.75.62-1.35,1.37-1.36.75,0,1.37.6,1.37,1.36,0,.37-.14.72-.39.98-.26.26-.61.41-.98.4h0Z"/>
    <g id="Group_22427" data-name="Group 22427">
      <path id="Path_39302" data-name="Path 39302" class="cls-1" d="m16.49,1.8l-.19.16c-.82.65-1.7,1.24-2.61,1.76l-.12.06-.07-.1c-.66-.92-1.4-1.78-2.21-2.57l-.24-.23h.35c.26-.03.51-.04.77-.04,1.42,0,2.82.31,4.12.88l.22.08Z"/>
      <path id="Path_39303" data-name="Path 39303" class="cls-1" d="m12.05,4.55l-.16.07c-.59.27-1.21.51-1.82.72-.65.23-1.32.43-1.99.59l-.17.04v-.19c-.05-1.43.12-2.86.52-4.24l.55-.22.07.04c1.1.87,2.08,1.89,2.9,3.02l.11.15Z"/>
      <path id="Path_39304" data-name="Path 39304" class="cls-1" d="m6.38,2.93c-.14,1.07-.19,2.15-.13,3.22v.14h-.13c-.94.16-1.89.23-2.84.23h-.24l.12-.22c.72-1.38,1.74-2.58,2.99-3.51l.27-.2-.05.33Z"/>
      <path id="Path_39305" data-name="Path 39305" class="cls-1" d="m6.77,10.04h-.02l-.38.21c-.15.08-.29.16-.46.26l-.07.02-.2.13c-.98.7-1.84,1.56-2.53,2.55l-.8.28-.03-.16c-.39-1.66-.36-3.4.08-5.05l.03-.1.96.02c.96,0,1.93-.08,2.88-.21l.15-.02.03.13c.08.64.19,1.29.34,1.94Z"/>
      <path id="Path_39306" data-name="Path 39306" class="cls-1" d="m14.6,9.24l-2.6.9c-.9-.32-1.85-.51-2.81-.56-.14,0-.27,0-.41.02h-.06c-.12.02-.21.02-.33.03-.13-.62-.24-1.22-.33-1.85l-.02-.13.13-.03c.9-.21,1.7-.44,2.43-.69.67-.23,1.42-.54,2.25-.91l.13-.05.05.12c.58.96,1.08,1.97,1.49,3.02l.06.12Z"/>
      <path id="Path_39307" data-name="Path 39307" class="cls-1" d="m21.44,6.89l-5.26,1.82-.06-.13c-.43-1.13-.96-2.21-1.58-3.25l-.07-.13.13-.07c1.18-.67,2.29-1.46,3.31-2.36l.09-.07.1.07c1.41,1.03,2.54,2.39,3.28,3.97l.06.14Z"/>
      <path id="Path_39308" data-name="Path 39308" class="cls-1" d="m22.31,11.22c-.18.16-.35.33-.51.51h-4.7c-.09-.44-.2-.87-.34-1.29l-.03-.13,5.28-1.83.02.16c.21.84.31,1.71.29,2.58h0Z"/>
      <path id="Path_39309" data-name="Path 39309" class="cls-1" d="m15.38,11.72h-.93c-.15-.17-.32-.33-.49-.47l1.16-.41.05.15c.07.21.15.47.21.73Z"/>
    </g>
  </g>
</svg>