<?xml version="1.0" encoding="UTF-8"?>
<svg id="Layer_1" data-name="Layer 1" xmlns="http://www.w3.org/2000/svg" viewBox="0 0 36 36">
  <defs>
    <style>
      .cls-1 {
        fill: #aeaeae;
      }
    </style>
  </defs>
  <path class="cls-1" d="m26.76,10.95c-.8,2.59-1.99,2.99-3.98,2.99s-2.99-2.99-1.59-6.17C23.6,2.26,18.6,0,18.6,0c-1.19,6.77-8.36,5.77-7.16,10.75.37,1.53.53,2.6.6,3.34.1,1.03-.27,2.07-1.08,2.72-2.55,2.04-5.29-2.08-5.29-2.08-.77,1.76-1.21,3.44-1.43,4.98-.9,6.51,2.79,12.94,8.9,15.36,2.87,1.14,5.57,1.1,7.88.57,5.26-1.2,9.31-5.45,10.51-10.7,1.98-8.66-4.77-14-4.77-14Zm1.52,16.99c0,.86-.7,1.56-1.56,1.56H9.28c-.86,0-1.56-.7-1.56-1.56v-7.43c0-.86.7-1.56,1.56-1.56h17.45c.86,0,1.56.7,1.56,1.56v7.43Z"/>
  <g>
    <path class="cls-1" d="m9.47,20.77h1.77v2.73h1.57v-2.73h1.77v7.37h-1.77v-3.07h-1.57v3.07h-1.77v-7.37Z"/>
    <path class="cls-1" d="m18.03,28.33c-.85,0-1.49-.34-1.94-1.02s-.67-1.67-.67-2.96c0-1.19.22-2.12.67-2.78s1.07-1,1.87-1c.85,0,1.5.33,1.95,1s.68,1.62.68,2.86-.22,2.2-.66,2.88-1.07,1.02-1.89,1.02Zm-.06-6.09c-.57,0-.86.71-.86,2.13,0,.91.07,1.52.22,1.83s.36.46.63.46c.3,0,.53-.15.69-.46s.24-.9.24-1.8c0-1.44-.3-2.16-.91-2.16Z"/>
    <path class="cls-1" d="m20.96,20.77h5.42v1.68h-1.86v5.69h-1.8v-5.69h-1.77v-1.68Z"/>
  </g>
</svg>