<?xml version="1.0" encoding="UTF-8"?>
<svg id="Layer_1" data-name="Layer 1" xmlns="http://www.w3.org/2000/svg" viewBox="0 0 36 36">
  <defs>
    <style>
      .cls-1 {
        fill: #aeaeae;
      }
    </style>
  </defs>
  <path class="cls-1" d="m18,0C8.06,0,0,8.06,0,18s8.06,18,18,18,18-8.06,18-18S27.94,0,18,0Zm0,29.27c-6.22,0-11.27-5.04-11.27-11.27s5.04-11.27,11.27-11.27,11.27,5.04,11.27,11.27-5.04,11.27-11.27,11.27Z"/>
  <path class="cls-1" d="m13.67,14.61c0-.62.17-1.21.51-1.76.34-.55.84-.99,1.49-1.32.66-.33,1.42-.49,2.3-.49.74,0,1.39.1,1.95.29s1.03.46,1.4.8.65.72.83,1.15c.18.43.27.88.27,1.36,0,.61-.16,1.15-.47,1.63s-.78.87-1.4,1.18c.53.21.97.47,1.32.81.35.33.61.72.79,1.16.18.44.27.93.27,1.46,0,.78-.19,1.49-.57,2.13s-.94,1.14-1.67,1.5c-.73.36-1.6.54-2.59.54s-1.92-.18-2.65-.54c-.73-.36-1.29-.86-1.66-1.49s-.56-1.34-.56-2.12c0-1.67.79-2.82,2.37-3.44-1.28-.6-1.91-1.54-1.91-2.83Zm6.69,6.18c0-.48-.1-.91-.3-1.27-.2-.36-.48-.64-.84-.83s-.77-.29-1.21-.29c-.63,0-1.17.21-1.59.63-.43.42-.64,1.01-.64,1.77,0,.48.1.91.3,1.28.2.37.48.66.83.86.35.2.74.3,1.17.3s.83-.1,1.18-.31c.35-.21.62-.49.82-.87.2-.37.3-.8.3-1.29Zm-2.33-7.97c-.58,0-1.06.18-1.41.55-.36.36-.54.83-.54,1.4,0,.53.18.97.55,1.32s.84.53,1.42.53c.29,0,.56-.05.8-.14.24-.09.44-.22.62-.39.17-.16.3-.36.4-.59.09-.23.14-.48.14-.75,0-.37-.08-.7-.25-.99-.16-.29-.4-.52-.69-.69s-.64-.25-1.03-.25Z"/>
</svg>