<svg width="29" height="28" viewBox="0 0 29 28" fill="none" xmlns="http://www.w3.org/2000/svg">
<path d="M22.5378 10.8155C20.9694 10.0718 19.2784 9.89188 17.6952 10.1948C15.3158 10.6504 13.1786 12.1948 12.0608 14.5513C11.5615 15.6034 11.3165 16.7114 11.3006 17.8046C11.2579 20.7884 12.9243 23.666 15.7965 25.0283C19.7214 26.8904 24.4119 25.2175 26.2735 21.2925C28.1351 17.3677 26.4628 12.6771 22.5378 10.8155ZM23.6573 13.8857C23.5862 15.0227 23.2936 16.1328 22.6828 17.092C22.0418 18.1147 21.2062 18.8891 20.2093 19.5092C19.7433 19.834 19.2468 20.2229 18.7803 20.5483C18.1596 21.0339 17.7297 21.6109 17.3338 22.2813C16.8767 23.0798 16.5813 24.0319 16.1247 24.8303C15.9705 24.991 15.8463 25.0878 15.6856 24.9336C14.7565 24.2593 14.6367 23.0316 14.6772 21.9581C14.7483 20.8212 15.1043 19.7411 15.6517 18.7517C16.5983 17.2495 18.1252 16.3352 19.5542 15.2961C20.1749 14.8099 20.6047 14.233 21.0006 13.5625C21.4573 12.7646 21.7531 11.812 22.2098 11.0141C22.3639 10.8527 22.4881 10.7559 22.6489 10.9102C23.578 11.585 23.6978 12.8127 23.6573 13.8857Z" fill="#ff8900"/>
<path d="M9.83073 2.21094C5.4869 2.21094 1.96558 5.73227 1.96558 10.0761C1.96558 14.4199 5.4869 17.9418 9.83073 17.9418C10.1435 17.9418 10.452 17.9237 10.7555 17.8877C10.7582 16.6879 11.0191 15.4705 11.5665 14.3166C12.2621 12.8504 13.3559 11.6254 14.7291 10.7745C15.6396 10.2106 16.6421 9.82727 17.6845 9.64023C17.4585 5.4993 14.0285 2.21094 9.83073 2.21094ZM12.6515 7.81969C12.5104 9.01844 12.0871 10.0761 11.4528 11.0632C11.1706 11.557 10.8884 12.1209 10.6067 12.6147C10.254 13.3202 10.1129 14.0251 10.0424 14.8011C9.97183 15.7177 10.1129 16.7048 10.0424 17.6213C9.97183 17.8329 9.90128 17.974 9.68964 17.9035C8.56144 17.6918 7.92706 16.6342 7.50378 15.6471C7.0805 14.5894 6.9394 13.4606 7.00995 12.3324C7.22159 10.5699 8.2087 9.08893 9.05526 7.53745C9.408 6.83198 9.54854 6.12705 9.61909 5.35159C9.68964 4.43448 9.54854 3.44737 9.61909 2.5308C9.68964 2.31916 9.76019 2.17807 9.97183 2.24862C11.1 2.46026 11.735 3.51791 12.1577 4.50502C12.581 5.56273 12.7926 6.69148 12.6515 7.81969Z" fill="#ff8900"/>
</svg>
