<?xml version="1.0" encoding="UTF-8"?>
<svg id="Layer_1" data-name="Layer 1" xmlns="http://www.w3.org/2000/svg" viewBox="0 0 36 36">
  <defs>
    <style>
      .cls-1 {
        fill: #aeaeae;
      }
    </style>
  </defs>
  <path class="cls-1" d="m26.12,17.28c.02-2.29-.52-8.66-6.67-13.04,2.62-1.11,4.92-1.17,4.96-1.18.52,0,.94-.44.93-.96,0-.52-.46-.95-.96-.94-.25,0-6.27.13-10.56,4.66-.26.28-.5.58-.74.87-.36-1.62-1.1-3.51-2.63-4.82C7.32-.81,2.26.16,2.05.2c-.43.09-.74.45-.76.89,0,.22-.19,5.36,2.95,8.05,1.8,1.55,4.24,1.88,6.03,1.88.16,0,.32,0,.47,0-.64,1.86-.97,3.96-1.01,6.27-4.74.47-8.45,4.47-8.45,9.33,0,5.18,4.2,9.38,9.38,9.38s9.38-4.2,9.38-9.38c0-4.85-3.69-8.85-8.42-9.33.04-2.48.44-4.67,1.24-6.55.32-.15.54-.45.55-.81,0-.03,0-.15,0-.33.49-.9,1.07-1.73,1.77-2.46.73-.78,1.53-1.4,2.34-1.91,6.3,3.93,6.73,10.11,6.7,12.07-1.85.22-3.53.97-4.89,2.11,1.62,1.95,2.6,4.46,2.6,7.2s-.98,5.24-2.6,7.2c1.63,1.36,3.72,2.18,6.01,2.18,5.18,0,9.38-4.2,9.38-9.38s-3.79-8.94-8.6-9.34ZM3.2,1.96c1.37-.14,4.22-.19,6.03,1.36,1.63,1.4,2.1,3.82,2.24,5.29l-3.68-3.53c-.38-.36-.98-.35-1.34.03s-.35.98.03,1.34l2.73,2.62c-1.27-.11-2.68-.47-3.74-1.37-1.81-1.55-2.2-4.38-2.27-5.75Zm11.9,25.59c-.02.51-.44.92-.95.92-.01,0-.02,0-.03,0-.52-.02-.93-.45-.92-.98.11-3.3-2.34-3.63-2.62-3.66-.52-.05-.9-.51-.86-1.02.04-.52.5-.89,1.01-.86,1.57.12,4.5,1.45,4.36,5.61Zm13.53.92s-.02,0-.03,0c-.52-.02-.93-.45-.92-.98.11-3.3-2.34-3.63-2.62-3.66-.52-.05-.9-.51-.86-1.02.04-.52.5-.89,1.01-.86,1.57.12,4.5,1.45,4.36,5.61-.02.51-.44.92-.95.92Z"/>
</svg>