<?xml version="1.0" encoding="UTF-8"?>
<svg id="Layer_1" data-name="Layer 1" xmlns="http://www.w3.org/2000/svg" viewBox="0 0 36 36">
  <defs>
    <style>
      .cls-1 {
        fill: #ff8900;
      }
    </style>
  </defs>
  <path class="cls-1" d="m31.89,6.55s0,0,0,0C28.58,2.55,23.59,0,18,0,15.85,0,13.79.38,11.88,1.07c-.03,0-.06.02-.08.03C4.91,3.63,0,10.24,0,18c0,9.94,8.06,18,18,18s18-8.06,18-18c0-4.35-1.54-8.34-4.11-11.45Zm-7.95-3.6c2.13.85,4.05,2.14,5.63,3.75l-.82,7.02-1.98.44-2.04.46-5.8-4.21v-3.87l5.01-3.59Zm-12.45.23l5.55,3.4v3.83l-5.8,4.21-4.05-.91-1.07-6.71c1.49-1.61,3.32-2.93,5.37-3.83ZM3.83,25.83c-.94-1.7-1.59-3.58-1.86-5.57l4.72-4.76,3.46.77,2.42,7.45-2.18,3.36-6.56-1.25Zm16.91,8.13c-.89.16-1.81.23-2.74.23s-1.85-.08-2.74-.23l-3.36-5.83,1.97-3.04h8.24l1.98,3.04-3.36,5.83Zm4.88-6.88l-2.18-3.36,2.42-7.46,2.36-.53,1.08-.24,4.71,4.84c-.29,1.98-.93,3.84-1.87,5.52l-6.53,1.23Z"/>
</svg>