<?xml version="1.0" encoding="utf-8"?>
<!-- Generator: Adobe Illustrator 21.0.0, SVG Export Plug-In . SVG Version: 6.00 Build 0)  -->
<svg version="1.1" id="Layer_1" xmlns="http://www.w3.org/2000/svg" xmlns:xlink="http://www.w3.org/1999/xlink" x="0px" y="0px"
	 viewBox="0 0 553.9 543.9" style="enable-background:new 0 0 553.9 543.9;" xml:space="preserve">
<style type="text/css">
	.st0{fill:#828182;}
</style>
<g>
	<path class="st0" d="M367.5,236.2c-4.5,7.3-9.1,14.6-13.9,22.3c-5-7-9.6-13.6-15-21.2C349,240,358.1,239.3,367.5,236.2z"/>
	<path class="st0" d="M553.8,71.1c-1.3-9.6-8.6-13.1-17-15.2c-32-8-64-16-96-24.1C399.9,21.5,359,11.3,318,1
		c-12.4-3.1-19.6,0.9-23.4,12.8c-0.3,0.9-0.5,1.8-0.8,2.7C281,66.6,268,116.7,255.1,166.9c-1.4,5.5-1.3,5.7,3.9,8
		c18.5,8.4,35.3,19.3,50.6,32.6c1.3,1.1,2.6,2.1,4.6,3.8c0-2.7,0-4.3,0-5.9c0.4-20,8.1-36.1,25.6-46.5c20.4-12.1,41-23.8,61.4-35.8
		c3.2-1.9,5-1,6.7,1.9c3,5.1,6.2,10.1,9.3,15.1c9,14.6,18.1,29.1,26.8,43.8c10.6,17.8,11.5,36,1.2,54.3
		c-4.8,8.6-11.5,15.3-21.6,16.9c-13.6,2.2-25.4-1.8-35.4-11.4c-1.2-1.2-2.5-2.3-3.8-3.4c-0.3,0.2-0.5,0.3-0.8,0.5
		c1.2,13.8,2.5,27.7,3.7,42.1c-8.1-1.9-15.5-3.7-23.5-5.5c0.4,1.3,0.5,1.8,0.7,2.3c15.2,32.7,22.4,67,20.8,103
		c-0.2,3.4,1.2,4.9,4.5,5.7c20,4.9,40,10,60.1,15c13.2,3.3,22.6-2.3,25.9-15.4c25.5-101.7,51.1-203.5,76.5-305.2
		C553.4,78.9,554.3,74.8,553.8,71.1L553.8,71.1z M328.3,84.2c-2.1,2.5-4.8,3-7.8,2.3c-0.6-0.1-1.2-0.3-2-0.5
		c-2.2,6.3-3.3,6.7-8.4,2.9c0.4-1.3,0.9-2.6,1.5-4.2c-1-0.4-1.9-0.7-2.8-1.1c-5.2-1.7-7.3-7.9-3.3-11.6s8.8-6.6,13.5-9.5
		c0.7-0.5,3.2,0.5,3.7,1.4c2.4,3.9,4.4,8,6.5,12.1C330.6,79,330.5,81.7,328.3,84.2L328.3,84.2z M328.5,52.3
		c-0.2-2.9-2.4-3.4-4.4-3.5c-1.8-0.1-4.6,0-5.4,1.2c-3.3,4.4-3.1,4.6-9.2,2c1.9-2.5,3.6-4.9,5.4-7.2c3.7-4.8,7.3-9.6,11.2-14.3
		c2.3-2.8,4.5-2.5,5.1,0.7c1.8,9,3.1,18,4.7,27.5C329,58,328.9,58,328.5,52.3L328.5,52.3z M458.2,354.5
		c-5.1,6.6-10.1,13.1-15.3,19.6c-0.6,0.8-1.9,1.6-2.8,1.6c-0.6,0-1.6-1.4-1.7-2.3c-1.4-8.7-2.7-17.4-3.9-26.1
		c-0.1-0.4,0.2-0.7,0.4-1.5c3.9,0,6.8,0.6,6.2,5.4c-0.4,3.1,2.1,3.8,4.3,4c1.8,0.2,4.7,0.3,5.5-0.8c3.4-4.3,3.2-4.5,8.8-2.4
		C459.1,352.8,458.8,353.7,458.2,354.5L458.2,354.5z M459.2,335.8c-2.3,1.7-4.8,3.2-7.1,4.9s-4.3,1.1-5.7-1.1
		c-2.1-3.5-4.3-7-5.9-10.7c-2.6-6,0.1-10.6,6.5-11.2c3.3-0.3,5.2-1.7,5.6-5.4c2.6,0.6,4.8,1.2,7.3,1.8c-0.7,1.9-1.3,3.4-1.9,4.9
		C468.7,324.5,469,328.7,459.2,335.8L459.2,335.8z"/>
	<path class="st0" d="M180.4,183.2C81.1,183.2-0.7,264.8,0,364.3c0.7,101.3,83.3,181,182.8,179.6c103-1.4,179-86.4,178.2-180.1
		C360.9,263.8,280.2,183.1,180.4,183.2L180.4,183.2z M303,307.7c2.3,3.3,2.5,6.4,1,10c-6.3,15.5-12.7,30.9-18.9,46.4
		c-1.5,3.8-3.9,5.3-8,5.6c-17.3,1.3-34.6,2.8-51.9,4.3c-3.6,0.3-6.5-0.7-8.6-3.6c-12.9-17.3-25.8-34.6-38.4-52.2c-1.4-2-1.8-5.7-1-8
		c6.4-16.8,13.2-33.5,19.9-50.3c1.3-3.2,3.4-4.7,6.9-4.7c8.2-0.1,16.3-0.4,24.5-0.9c6.9-0.4,13.8-1.3,20.7-1.9
		c20.2,0.8,15.2-1.2,26,14.2C284.7,280.3,293.7,294.2,303,307.7z M209,384.8c-7.8,18.1-15.6,36.3-23.3,54.4
		c-1.2,2.8-3.3,4.4-6.3,4.7c-20.8,1.9-41.6,3.9-62.5,5.6c-1.8,0.1-4.4-1.3-5.5-2.8c-11.1-16.4-21.9-32.8-32.6-49.4
		c-1.1-1.7-1.2-4.8-0.5-6.6c7.5-18.8,15.2-37.5,23.2-56.1c0.9-2.1,3.8-4.5,6-4.8c18.4-2.9,36.9-5.4,56.6-8.1
		c1.2,0.8,3.6,1.6,4.9,3.3c13.1,17.5,26.1,35.1,39.1,52.6C209.9,379.8,210.2,382.2,209,384.8L209,384.8z M146.4,214.8
		c1.7-4.4,2.9-9,4.2-13.6c0.9-3.3,2.7-5.1,6.4-5.3c9-0.7,18.1-1.7,24.5-2.3c29.5,1,54.9,7.5,78.4,20.6c3.6,2,6.4,5.4,9.2,8.5
		c0.8,0.9,1,3,0.6,4.4c-0.8,3.6-2.2,7-3.1,10.6c-0.9,3.7-3.2,5.1-6.8,5.2c-8,0.2-16,0.6-24.1,0.9c-10.4,0.4-20.8,1.1-31.2,0.9
		c-5.2-0.1-10.8-1.3-15.6-3.4c-13.3-5.9-26.3-12.7-39.5-18.9C146,220.6,145,218.6,146.4,214.8L146.4,214.8z M139.9,199
		c-1.2,4-2.3,7-2.9,10.1c-1.4,7.2-5.4,12.2-11.5,16.5c-13.1,9.3-25.8,19.1-38.4,29c-6.3,5-13,8-21.1,8.5c-7.2,0.4-14.4,1.7-21.7,2.6
		c-0.1-0.4-0.3-0.8-0.4-1.3C67.6,231.5,99.5,210.2,139.9,199L139.9,199z M61.9,391.2c-11.1,2.2-22.1,4.7-33.2,7
		c-1.9,0.4-3.6,0.8-4.3-1.8c-3.9-14.7-7.8-29.4-11.7-44.2c-0.3-1.3-0.4-2.6-0.7-4.7c0.6-2.3,1.1-5.5,2.2-8.4
		c7.2-18.5,14.6-36.9,21.9-55.4c1.4-3.6,3.5-5.9,7.6-6.4c9.4-1.1,18.7-2.6,28.1-3.9c2.8-0.4,4.6,0.8,5.5,3.4
		c5.2,15.2,10.4,30.3,15.4,45.6c0.5,1.7,0.2,4-0.5,5.7c-7.8,19.2-15.8,38.4-23.7,57.6C67.2,388.7,65.2,390.5,61.9,391.2L61.9,391.2z
		 M76.1,497.3c7-3.8,22.7,6,24.2,15.8C91.7,507.5,84,502.5,76.1,497.3L76.1,497.3z M209,524.9c-17.1,1.9-34.2,4.1-51.3,5.9
		c-8.8,0.9-16.9-1.5-24-7.1c-9.3-7.4-18.6-14.7-28.1-21.8c-3.1-2.3-4-4.7-2.6-8.5c3.5-9.2,6.7-18.6,9.9-27.9c1-2.9,2.7-4.9,5.8-5.2
		c20.8-2,41.6-3.9,62.5-5.8c0.1-0.3,0.3-0.5,0.4-0.8c2.9,1.3,6.1,2.1,8.6,3.9c13.4,9.6,26.5,19.5,39.8,29.2c2.5,1.8,3.1,3.3,1.4,6.1
		c-5.4,9-10.6,18.2-15.8,27.4C214.2,522.9,212.3,524.5,209,524.9L209,524.9z M312.9,469.2c-18,21-39.4,37.9-64.2,50.3
		c-5.2,2.6-11.1,3.9-16.8,5.6c-1.5,0.5-3.3,0.1-5.6,0.1c0.9-2,1.4-3.6,2.2-5.1c3.5-6.3,7-12.6,10.5-19c3.9-7,9.4-12.6,15.8-17.3
		c13.1-9.7,26.4-19.2,39.3-29.2c5.3-4.1,10.5-6.5,17.4-4.8c4,1,8.2,1.2,13.8,2C320.8,458.2,317.3,464.1,312.9,469.2L312.9,469.2z
		 M334.2,435.6c-2.6,5.6-3.3,6.1-9.3,5.3c-5.2-0.7-10.4-1.6-15.6-2.2c-2.8-0.3-4.2-1.8-4.7-4.4c-3.6-17.9-7.4-35.8-10.7-53.7
		c-0.6-3.4,0-7.5,1.2-10.7c5.9-15.6,12.3-31.1,18.5-46.6c2-5.1,3.3-5.7,8.8-4.9c4.6,0.6,9.1,1.2,13.7,1.6c3.7,0.3,5.9,2,7.3,5.5
		c5.1,12.9,8.3,26.1,7.1,40.5C349.9,389.9,344.4,413.3,334.2,435.6L334.2,435.6z"/>
	<path class="st0" d="M126.3,158.5c-10-21.6-20-43.2-29.8-64.8c-2.1-4.6-5.2-6.5-10-6.8C74.2,86,61.9,85,49.6,84
		c-11.6-1.1-23.1-2-35.4-3c0.9,1.8,1.3,2.9,1.9,3.9c11.4,19.7,22.9,39.3,34.3,59c2,3.4,4.9,4.9,8.6,5.6c16.2,3.3,32.4,6.7,48.6,10
		c6.8,1.4,13.5,2.6,21,4C127.5,161.3,126.9,159.9,126.3,158.5L126.3,158.5z M68.9,140.9c-1,1.7-3.3,2.6-5.6,4.2
		c-3.1-2.1-6.3-3.5-8.4-5.9c-1.1-1.3-1-4.7,0-6.4c0.7-1.2,3.9-2.1,5.4-1.6c2.7,0.9,5.3,2.8,7.4,4.8
		C68.8,137.1,69.6,139.8,68.9,140.9z M78.4,121.4c-0.6,1.5-2.8,2.3-5,3.9c-3.3-2.2-6.7-4-9.3-6.5c-1-0.9-0.8-4.3,0.1-5.6
		c1.4-1.8,3.8-3.5,6.5-1.7c2.3,1.5,4.8,2.9,6.6,4.9C78.3,117.6,78.9,120.1,78.4,121.4z M88.1,102c-0.5,1.6-3.2,2.4-5.4,3.9
		c-3-1.8-5.9-3.1-8.2-5c-2.1-1.9-3.3-4.9-0.8-7.3c2.1-2.1,4.9-3.7,7.9-0.9c1.5,1.3,3.5,2.1,4.6,3.6C87.4,97.9,88.6,100.5,88.1,102z"
		/>
	<path class="st0" d="M175.7,91.1c-5.4-17-10.6-34.1-15.9-51.2c-1.7-5.3-3.4-10.7-5.3-16.4c-0.9,0.8-1.4,1.2-1.9,1.7
		c-15.4,17.8-30.8,35.6-46.2,53.4c-3.3,3.7-3,7.5-1.1,11.7c10.3,21.9,20.6,43.8,30.9,65.7c0.5,1,1.1,2,2,3.5
		c1.2-1.9,2.2-3.3,3.1-4.7c11-17.8,21.9-35.6,33.1-53.3C176.5,98,176.9,94.8,175.7,91.1L175.7,91.1z M128.1,91.7
		c-1,1.7-3.5,3.2-5.5,3.5c-1.7,0.2-4-5.6-3.2-7.5c0.9-2.2,1.7-4.5,3.1-6.3c1.1-1.4,3.7-3.4,4.7-3c1.6,0.7,2.4,3.2,3.3,4.5
		C129.5,86.5,129.4,89.4,128.1,91.7z M144.2,138c-2,2.3-4.8,2-6.1-0.6c-2.4-4.8,0.7-13,5.8-15.3C148.6,127.5,148.7,133,144.2,138
		L144.2,138z M147.2,99.4c-2.2,1.5-4.1,0.9-5.2-1.4c-0.8-1.6-1-3.5-1.7-6.1c1.3-2.5,2.5-5.7,4.3-8.5c1.5-2.3,3.6-1.8,5.2,0.2
		C152.7,87.3,151.2,96.8,147.2,99.4z M151,60.1c-0.9,0.6-2.9,1.1-3.5,0.6c-1.4-1.2-2.2-3-2.9-4.1c0.7-3.8,1-6.9,2-9.7
		c0.5-1.3,2.2-2.8,3.6-3.1c1-0.2,2.6,1.4,3.4,2.6C156,50,154.5,57.7,151,60.1z M167.7,101.2c-0.7,1.1-4.1,2-4.4,1.7
		c-1.4-2-2.8-4.4-2.9-6.7c-0.1-2,1.2-4.4,2.5-6.1c1.2-1.6,3.7-3.7,4.9-3.3c1.7,0.5,2.7,3.2,4.2,5.2
		C170.4,95.5,169.4,98.6,167.7,101.2z"/>
	<path class="st0" d="M140.5,18c-21.6,0.5-43.2,1.1-64.7,1.5c-4,0.1-7,1.3-9.8,4.1C51.1,37.8,36.2,51.9,21.2,66
		c-1.5,1.4-3.3,2.5-5,3.8c0.3,0.5,0.7,1,1,1.4c1.6,0.2,3.1,0.6,4.7,0.7c9,0.8,18.1,1.4,27.1,2.2c12.7,1.1,25.4,2.3,38.1,3.5
		c4.4,0.4,8.3-0.1,11.4-3.8C110,60.1,121.5,46.6,133,33c4-4.8,8.1-9.6,12.7-15C143.3,18,141.9,18,140.5,18z M71.6,49.8
		c2.9-6.5,12-11.1,18.2-8.9C87.1,47.9,77.4,52.5,71.6,49.8z"/>
	<path class="st0" d="M328.5,44.7c-2.5-0.5-4.1-0.9-6.2-1.3c1.6-2.4,2.9-4.3,4.8-7.2C327.7,39.5,328,41.7,328.5,44.7L328.5,44.7z"/>
	<path class="st0" d="M441.7,367.4c-0.1-1.8-0.3-3.6-0.2-5.4c0-0.8,0.6-2,1.2-2.1c0.9-0.2,2.1,0.1,2.8,0.7c0.4,0.4,0.4,1.8,0.1,2.4
		c-0.9,1.7-2,3.2-3.1,4.8C442.3,367.7,442,367.5,441.7,367.4z"/>
</g>
</svg>
