<?xml version="1.0" encoding="utf-8"?>
<!-- Generator: Adobe Illustrator 16.0.0, SVG Export Plug-In . SVG Version: 6.00 Build 0)  -->
<!DOCTYPE svg PUBLIC "-//W3C//DTD SVG 1.1//EN" "http://www.w3.org/Graphics/SVG/1.1/DTD/svg11.dtd">
<svg version="1.1" id="Layer_1" xmlns="http://www.w3.org/2000/svg" xmlns:xlink="http://www.w3.org/1999/xlink" x="0px" y="0px"
	 width="44px" height="43px" viewBox="0 95.774 612 598.161" enable-background="new 0 95.774 612 598.161"
	 xml:space="preserve">
<path fill="#808080" d="M264.948,395.98c-14.667,0-26.809,4.836-36.422,14.529c-9.614,9.614-14.826,22.762-14.451,36.344
	c0.02,8.982,2.191,17.807,6.317,25.782c4.125,8.212,10.68,14.944,18.774,19.287c8.212,4.541,17.432,6.89,26.809,6.831
	c14.885,0,27.164-4.777,36.857-14.353c9.693-9.574,14.53-21.735,14.53-36.521c0-14.983-4.995-27.381-14.964-37.192
	C292.428,400.876,279.932,395.96,264.948,395.98z"/>
<path fill="#808080" d="M305.003,95.774C139.828,95.774,5.922,229.68,5.922,394.855s133.905,299.081,299.081,299.081
	c165.176,0,299.081-133.905,299.081-299.081S470.179,95.774,305.003,95.774z M138.189,520.034h-31.25V321.575
	c-8.982,8.252-18.873,15.458-29.493,21.459c-10.443,6.297-21.419,11.687-32.791,16.089v-30.105
	c16.583-7.66,31.981-17.668,45.681-29.75c13.029-11.647,22.249-22.959,27.638-33.916h20.215V520.034z M326.284,502.268
	c-15.339,14.767-35.515,22.149-60.546,22.149c-25.032,0-45.228-7.403-60.566-22.229c-15.339-14.826-22.999-33.304-23.019-55.453
	c0-16.504,4.185-30.323,12.556-41.457c8.37-11.134,20.274-18.715,35.731-22.762c-12.93-4.718-22.505-11.45-28.723-20.235
	c-6.436-9.258-9.733-20.313-9.437-31.586c-0.355-17.649,6.89-34.606,19.879-46.55c13.266-12.575,30.915-18.873,52.946-18.853
	c22.031,0.02,39.857,6.436,53.479,19.287c13.147,12.062,20.512,29.158,20.235,46.984c0.256,10.957-2.981,21.715-9.259,30.717
	c-6.18,8.726-15.537,15.438-28.112,20.156c15.576,5.094,27.42,13.286,35.535,24.578c8.113,11.292,12.18,24.795,12.199,40.489
	c0.435,20.669-7.916,40.549-22.998,54.703L326.284,502.268z M496.415,409.188v69.568H467v-69.628h-69.095v-29.079H467v-69.094
	h29.415v69.094h69.095v29.06L496.415,409.188z"/>
<path fill="#808080" d="M265.797,370.553c12.003,0,21.874-3.771,29.612-11.332c7.542-7.245,11.707-17.313,11.509-27.776
	c0.237-10.838-4.047-21.281-11.845-28.802c-7.817-7.758-18.478-11.983-29.494-11.687c-11.016-0.355-21.676,3.771-29.612,11.411
	c-7.62,7.028-11.924,16.958-11.845,27.341c0,12.003,3.869,21.814,11.588,29.415C243.43,366.724,253.458,370.534,265.797,370.553z"/>
</svg>
