<?xml version="1.0" encoding="utf-8"?>
<!-- Generator: Adobe Illustrator 16.0.0, SVG Export Plug-In . SVG Version: 6.00 Build 0)  -->
<!DOCTYPE svg PUBLIC "-//W3C//DTD SVG 1.1//EN" "http://www.w3.org/Graphics/SVG/1.1/DTD/svg11.dtd">
<svg version="1.1" id="layer" xmlns="http://www.w3.org/2000/svg" xmlns:xlink="http://www.w3.org/1999/xlink" x="0px" y="0px"
	 width="155px" height="43px" viewBox="0 314.069 612 159.695" enable-background="new 0 314.069 612 159.695"
	 xml:space="preserve">
<path fill="#FFFFFF" d="M70.722,382.014c-3.571,1.29-7.34,2.182-11.308,2.777s-8.332,0.893-13.192,0.893
	c-10.117,0-19.54-3.273-26.483-9.225c-6.844-5.852-11.208-14.283-11.208-24.4c0-11.308,3.968-20.83,11.01-27.476
	s17.061-10.514,29.063-10.514c4.463,0,8.53,0.397,12.2,1.19c3.67,0.694,6.943,1.785,9.919,3.174l-3.868,10.613
	c-0.992-0.793-3.075-2.182-6.249-3.372c-3.075-1.091-7.34-2.083-12.696-2.083c-8.332,0-14.779,2.579-19.243,7.142
	c-4.464,4.563-6.745,11.109-6.745,19.044c0,8.431,2.976,15.176,7.539,19.838c4.563,4.662,10.812,7.142,17.259,7.142
	c2.38,0,4.364-0.099,6.051-0.298c1.785-0.198,3.273-0.595,4.563-1.091c0.198-1.885,0.298-4.563,0.397-7.241l0.099-7.142
	l-0.099-6.249c-0.099-1.885-0.199-3.571-0.397-5.257h13.391l-0.198,6.447v7.042v9.225l0.198,9.423"/>
<path fill="#FFFFFF" d="M98.297,355.432h22.02l-5.654-14.68l-4.761-13.788l-3.273,8.431l-3.769,9.225l-2.282,5.356 M117.242,314.168
	l13.093,34.32l14.978,35.609h-14.68l-1.488-3.769l-1.488-3.968l-2.381-5.753l-2.182-5.852H94.627l-2.38,5.852l-2.48,5.555
	l-1.686,4.067c-0.595,1.389-1.19,2.678-1.488,3.868H73.996l15.374-33.526l15.871-36.403H117.242L117.242,314.168z"/>
<path fill="#FFFFFF" d="M215.043,383.403l-0.396-27.674l-1.091-26.186l-1.984,5.356l-2.281,6.149l-7.737,21.723l-7.538,20.73
	h-11.705l-9.522-28.07l-8.431-25.79l-2.579,26.285l-1.587,27.575h-11.903c1.686-11.803,2.976-23.21,3.967-34.716l2.083-34.617
	h15.871l5.753,17.755l6.447,18.152l3.571,10.415l3.273,9.721l10.315-27.674l9.919-28.467h15.375c0,9.919,0.397,21.524,1.091,33.526
	l2.678,35.708"/>
<path fill="#FFFFFF" d="M256.207,374.376c6.943,0,11.506-0.992,14.382-2.976c2.876-1.884,3.967-4.761,3.967-8.232
	c0-3.67-1.488-6.448-4.563-8.233c-3.075-1.885-7.737-2.777-14.085-2.777h-6.943v11.208l0.198,11.109 M249.264,323.294l-0.199,9.423
	v10.316h6.448c5.554,0,9.621-0.893,12.299-2.678c2.678-1.686,3.968-4.265,3.968-7.638c0-3.174-1.091-5.654-3.67-7.34
	c-2.579-1.686-6.546-2.579-12.2-2.579l-3.373,0.1C251.347,322.997,250.156,323.096,249.264,323.294z M271.482,346.107
	c4.86,0.992,8.828,3.075,11.506,5.952c2.678,2.876,4.265,6.447,4.265,10.613c0,6.745-2.479,11.903-7.34,15.375
	c-4.959,3.472-12.299,5.356-22.218,5.356H236.17l0.595-16.763l0.099-16.862l-0.099-17.854l-0.595-17.656h21.326
	c8.431,0,15.176,1.587,19.739,4.464c4.563,2.876,7.042,7.142,7.042,12.398c0,3.273-1.389,6.547-3.67,9.225
	C278.326,343.033,275.152,345.116,271.482,346.107z"/>
<polyline fill="#FFFFFF" points="306.1,365.846 306.198,370.012 306.298,374.079 323.061,373.98 337.344,373.682 333.773,383.403 
	293.105,383.403 293.8,366.64 293.8,349.778 293.8,331.824 293.105,314.168 306.595,314.168 306.396,320.814 306.298,326.667 
	306,337.478 305.901,349.778 306,358.209 "/>
<polyline fill="#FFFFFF" points="344.883,383.403 345.478,366.64 345.576,349.778 345.478,331.824 344.883,314.168 358.273,314.168 
	358.273,319.029 358.174,323.492 357.876,335.891 357.777,349.778 357.876,362.771 358.174,374.575 358.273,378.84 358.273,383.403 
	"/>
<polyline fill="#FFFFFF" points="424.531,314.168 424.135,331.824 424.135,349.778 424.135,366.64 424.531,383.403 412.529,383.403 
	393.287,354.34 376.127,329.543 376.227,358.407 376.821,383.403 364.721,383.403 365.315,366.64 365.415,349.778 365.315,331.824 
	364.721,314.168 378.606,314.168 397.949,340.95 413.323,363.664 413.224,337.379 412.629,314.168 "/>
<path fill="#FFFFFF" d="M494.063,382.014c-3.57,1.29-7.34,2.182-11.308,2.777c-4.066,0.595-8.332,0.893-13.093,0.893
	c-10.117,0-19.64-3.273-26.583-9.225c-6.943-5.852-11.308-14.283-11.308-24.4c0-11.308,4.066-20.83,11.109-27.476
	c7.042-6.646,17.061-10.514,29.161-10.514c4.464,0,8.432,0.397,12.102,1.19c3.67,0.694,7.043,1.785,10.019,3.174l-3.869,10.514
	c-1.487-1.488-4.166-2.777-7.438-3.769c-3.273-0.992-7.241-1.587-11.109-1.587c-8.53,0-15.176,2.579-19.64,7.142
	c-4.464,4.563-6.745,11.109-6.745,19.044c0,8.431,2.976,15.176,7.539,19.838c4.563,4.662,10.812,7.142,17.357,7.142
	c2.381,0,4.266-0.099,6.051-0.298c1.687-0.198,3.174-0.595,4.464-1.091c0.198-1.885,0.297-4.563,0.396-7.241l0.1-7.142l-0.1-6.249
	c-0.1-1.885-0.198-3.571-0.396-5.257h13.489c-0.099,1.984-0.198,4.166-0.198,6.447v7.042v9.225l0.198,9.423"/>
<path fill="#808080" d="M8.53,440.338c0-11.704,4.265-21.128,11.208-27.674c6.943-6.447,16.564-10.019,27.178-10.019
	c4.464,0,8.233,0.198,11.506,0.794c3.273,0.595,6.149,1.487,8.927,2.777l-4.166,11.208c-0.893-1.289-2.876-2.678-5.654-3.769
	c-2.777-1.092-6.447-1.885-10.712-1.885c-7.241,0-13.49,2.479-17.854,7.042s-7.042,11.209-7.042,19.54
	c0,7.936,2.678,14.581,7.142,19.145c4.463,4.563,10.712,7.24,17.755,7.24c3.273,0,6.249-0.298,9.026-1.091
	c2.777-0.794,5.356-1.885,7.935-3.571l3.77,8.828c-3.373,1.885-6.745,3.174-10.415,3.968c-3.67,0.793-7.737,1.19-12.399,1.19
	c-10.315,0-19.342-3.373-25.888-9.324C12.498,458.688,8.53,450.257,8.53,440.338"/>
<path fill="#808080" d="M104.348,464.937c6.844,0,12.498-2.678,16.564-7.34c3.968-4.662,6.249-11.308,6.249-19.342
	s-2.38-14.681-6.348-19.243c-4.067-4.662-9.721-7.24-16.465-7.24c-7.142,0-12.795,2.678-16.763,7.34s-6.051,11.308-6.051,19.144
	c0,7.935,2.182,14.581,6.15,19.342C91.75,462.259,97.404,464.937,104.348,464.937 M104.348,402.646
	c10.911,0,20.036,3.472,26.483,9.522s10.117,14.779,10.117,25.194c0,11.109-4.066,20.234-10.613,26.682
	c-6.646,6.349-15.771,9.919-25.987,9.919c-10.911,0-20.136-3.372-26.583-9.423s-10.216-14.68-10.216-25.095
	c0-11.109,3.967-20.334,10.514-26.781C84.807,406.217,93.933,402.646,104.348,402.646z"/>
<path fill="#808080" d="M212.563,471.186l-0.397-27.674l-1.091-26.087l-1.885,5.257l-2.281,6.051l-7.935,21.822l-7.539,20.631
	h-11.705l-9.522-28.07l-8.431-25.69l-2.48,26.187l-1.686,27.574h-11.903c1.687-11.804,2.976-23.21,3.968-34.716l2.083-34.519h15.87
	l5.753,17.854l6.447,18.251l3.67,10.415l3.174,9.621l10.415-27.575l10.117-28.566h15.176c0,9.919,0.396,21.524,1.091,33.526
	l2.678,35.708"/>
<path fill="#808080" d="M297.073,471.186l-0.396-27.674l-1.091-26.087l-1.984,5.257l-2.281,6.051l-7.836,21.822l-7.539,20.631
	h-11.902l-9.423-28.07l-8.431-25.69l-2.579,26.187l-1.687,27.574h-11.704c1.686-11.804,2.976-23.21,3.868-34.716l2.083-34.519
	h16.069l5.654,17.854l6.348,18.251l3.769,10.415l3.273,9.621l10.315-27.575l10.019-28.566h15.176c0,9.919,0.396,21.524,1.091,33.526
	l2.678,35.708"/>
<polyline fill="#808080" points="317.109,471.186 317.704,454.621 317.804,437.759 317.704,419.706 317.109,401.951 330.5,401.951 
	329.904,419.706 329.806,437.759 329.904,454.621 330.5,471.186 "/>
<path fill="#808080" d="M380.393,416.532c-1.488-1.289-3.472-2.579-6.051-3.571c-2.479-0.991-5.455-1.587-8.927-1.587
	c-4.266,0-7.341,0.894-9.424,2.381c-2.083,1.488-3.174,3.67-3.174,6.149c0,2.083,0.496,3.869,2.083,5.555
	c1.587,1.687,4.364,3.373,8.828,5.356l3.472,1.488l3.472,1.487c5.356,2.381,9.125,4.96,11.506,8.034
	c2.479,3.075,3.57,6.845,3.57,11.605c0,6.745-2.777,11.804-7.24,15.176c-4.563,3.373-10.911,5.158-18.152,5.158
	c-4.265,0-8.331-0.298-12.101-1.091c-3.77-0.694-7.34-1.786-10.713-3.373l3.869-10.117c2.578,1.687,5.653,3.174,8.827,4.166
	c3.175,0.992,6.547,1.587,9.82,1.587c4.662,0,7.836-1.091,9.919-2.876c1.983-1.785,2.876-4.266,2.876-6.943
	c0-2.479-0.893-4.563-2.579-6.349c-1.785-1.785-4.364-3.372-7.935-4.959l-3.968-1.885l-3.968-1.785
	c-4.761-2.183-8.332-4.662-10.712-7.638c-2.381-2.976-3.571-6.447-3.571-10.911c0-5.555,2.479-10.415,6.943-13.787
	c4.464-3.472,10.812-5.555,18.549-5.555c4.265,0,7.935,0.396,11.109,0.992c3.174,0.595,5.753,1.487,7.836,2.678"/>
<path fill="#808080" d="M431.971,416.532c-1.587-1.289-3.57-2.579-6.051-3.571c-2.479-0.991-5.455-1.587-8.827-1.587
	c-4.266,0-7.439,0.894-9.522,2.381c-2.083,1.488-3.174,3.67-3.174,6.149c0,2.083,0.495,3.869,2.182,5.555
	c1.587,1.687,4.364,3.373,8.927,5.356l3.472,1.488l3.472,1.487c5.356,2.381,9.126,4.96,11.507,8.034
	c2.479,3.075,3.57,6.845,3.57,11.605c0,6.745-2.777,11.804-7.241,15.176c-4.563,3.373-10.91,5.158-18.151,5.158
	c-4.364,0-8.431-0.298-12.2-1.091c-3.77-0.694-7.34-1.786-10.613-3.373l3.868-10.117c2.579,1.687,5.555,3.174,8.729,4.166
	c3.175,0.992,6.547,1.587,9.919,1.587c4.662,0,7.836-1.091,9.919-2.876c1.984-1.785,2.877-4.266,2.877-6.943
	c0-2.479-0.893-4.563-2.579-6.349c-1.785-1.785-4.364-3.372-7.935-4.959l-3.968-1.885l-3.968-1.785
	c-4.761-2.183-8.332-4.662-10.713-7.638c-2.38-2.976-3.57-6.447-3.57-10.911c0-5.555,2.479-10.415,6.943-13.787
	c4.463-3.472,10.812-5.555,18.548-5.555c4.266,0,7.936,0.396,11.109,0.992c3.174,0.595,5.753,1.487,7.836,2.678"/>
<polyline fill="#808080" points="444.369,471.186 444.965,454.621 445.063,437.759 444.965,419.706 444.369,401.951 457.76,401.951 
	457.165,419.706 457.065,437.759 457.165,454.621 457.76,471.186 "/>
<path fill="#808080" d="M502.197,464.937c6.943,0,12.597-2.678,16.664-7.34c3.967-4.662,6.248-11.308,6.248-19.342
	s-2.38-14.681-6.348-19.243c-4.066-4.662-9.82-7.24-16.564-7.24c-7.043,0-12.796,2.678-16.664,7.34
	c-3.968,4.662-6.149,11.308-6.149,19.144c0,7.935,2.281,14.581,6.249,19.342C489.6,462.259,495.353,464.937,502.197,464.937
	 M502.197,402.646c11.01,0,20.136,3.472,26.583,9.522s10.117,14.779,10.117,25.194c0,11.109-3.968,20.234-10.613,26.682
	c-6.646,6.349-15.771,9.919-26.187,9.919c-10.91,0-20.036-3.372-26.483-9.423s-10.117-14.68-10.117-25.095
	c0-11.109,3.968-20.334,10.514-26.781C482.558,406.217,491.683,402.646,502.197,402.646z"/>
<polyline fill="#808080" points="603.668,401.951 603.37,419.706 603.271,437.759 603.37,454.621 603.668,471.186 592.063,471.186 
	572.522,442.123 555.362,417.425 555.362,446.289 556.057,471.186 544.254,471.186 544.254,469.202 544.65,455.514 544.948,437.759 
	544.749,417.127 544.254,401.951 557.941,401.951 577.283,428.931 592.658,451.646 592.559,425.459 591.964,401.951 "/>
</svg>
