<svg width="39" height="10" viewBox="0 0 39 10" fill="none" xmlns="http://www.w3.org/2000/svg">
<path d="M2.3119 0V2.17396H0L2.3119 0Z" fill="#085200"/>
<path d="M36.5935 0.000244141V2.17421H38.9054L36.5935 0.000244141Z" fill="#085200"/>
<path d="M31.1074 9.44862H7.79812C4.76822 9.44862 2.31192 6.99238 2.31192 3.96244V0.000244141H36.5935V3.96244C36.5935 6.99236 34.1373 9.44862 31.1074 9.44862Z" fill="url(#paint0_linear_1_531)"/>
<path d="M13.3789 6.06154H11.6315L11.3514 6.88855H10.1576L11.8516 2.20658H13.1722L14.8662 6.88855H13.659L13.3789 6.06154ZM13.0855 5.18117L12.5052 3.46711L11.9316 5.18117H13.0855ZM16.5023 2.20658V5.00776C16.5023 5.28788 16.5712 5.50352 16.709 5.6547C16.8469 5.80587 17.0492 5.88146 17.3159 5.88146C17.5827 5.88146 17.7873 5.80587 17.9295 5.6547C18.0718 5.50352 18.143 5.28788 18.143 5.00776V2.20658H19.2834V5.00109C19.2834 5.41904 19.1945 5.77253 19.0167 6.06154C18.8388 6.35055 18.5987 6.56842 18.2964 6.71514C17.9985 6.86187 17.665 6.93524 17.2959 6.93524C16.9269 6.93524 16.5956 6.8641 16.3022 6.72181C16.0132 6.57509 15.7842 6.35722 15.6152 6.06821C15.4463 5.77475 15.3618 5.41904 15.3618 5.00109V2.20658H16.5023ZM23.4524 2.20658V3.1203H22.2119V6.88855H21.0714V3.1203H19.8309V2.20658H23.4524ZM26.239 6.93524C25.7988 6.93524 25.3942 6.83297 25.0252 6.62844C24.6606 6.42391 24.3693 6.13935 24.1515 5.77475C23.9381 5.4057 23.8313 4.9922 23.8313 4.53423C23.8313 4.07626 23.9381 3.66497 24.1515 3.30037C24.3693 2.93578 24.6606 2.65121 25.0252 2.44668C25.3942 2.24215 25.7988 2.13989 26.239 2.13989C26.6792 2.13989 27.0816 2.24215 27.4462 2.44668C27.8152 2.65121 28.1043 2.93578 28.3132 3.30037C28.5267 3.66497 28.6334 4.07626 28.6334 4.53423C28.6334 4.9922 28.5267 5.4057 28.3132 5.77475C28.0998 6.13935 27.8108 6.42391 27.4462 6.62844C27.0816 6.83297 26.6792 6.93524 26.239 6.93524ZM26.239 5.8948C26.6125 5.8948 26.9104 5.7703 27.1327 5.52131C27.3595 5.27231 27.4729 4.94329 27.4729 4.53423C27.4729 4.12072 27.3595 3.79169 27.1327 3.54714C26.9104 3.29815 26.6125 3.17365 26.239 3.17365C25.8611 3.17365 25.5587 3.29593 25.332 3.54047C25.1097 3.78502 24.9985 4.11627 24.9985 4.53423C24.9985 4.94773 25.1097 5.27898 25.332 5.52798C25.5587 5.77253 25.8611 5.8948 26.239 5.8948Z" fill="white"/>
<defs>
<linearGradient id="paint0_linear_1_531" x1="2.31192" y1="4.72443" x2="36.5935" y2="4.72443" gradientUnits="userSpaceOnUse">
<stop stop-color="#78A700"/>
<stop offset="1" stop-color="#216400"/>
</linearGradient>
</defs>
</svg>
