<svg width="80" height="43" viewBox="0 0 80 43" fill="none" xmlns="http://www.w3.org/2000/svg">
<g clip-path="url(#clip0_1_515)">
<mask id="mask0_1_515" style="mask-type:luminance" maskUnits="userSpaceOnUse" x="0" y="0" width="80" height="43">
<path d="M80 0H0V43H80V0Z" fill="white"/>
</mask>
<g mask="url(#mask0_1_515)">
<path d="M31.3648 14.4612L29.624 19.0965H28.7437L26.9963 14.4612H27.8099L29.1839 18.3162L30.5644 14.4612H31.3648ZM32.7609 14.4612V19.0965H32.0006V14.4612H32.7609ZM36.1668 19.0965L35.0997 17.2424H34.5195V19.0965H33.7592V14.4612H35.3598C35.7155 14.4612 36.0157 14.5235 36.2602 14.648C36.5092 14.7725 36.6937 14.9392 36.8138 15.1482C36.9383 15.3571 37.0005 15.5906 37.0005 15.8485C37.0005 16.1508 36.9116 16.4265 36.7338 16.6755C36.5603 16.92 36.2913 17.0868 35.9267 17.1757L37.0739 19.0965H36.1668ZM34.5195 16.6355H35.3598C35.6444 16.6355 35.8578 16.5643 36.0001 16.422C36.1468 16.2798 36.2202 16.0886 36.2202 15.8485C36.2202 15.6084 36.1491 15.4216 36.0068 15.2882C35.8645 15.1504 35.6488 15.0815 35.3598 15.0815H34.5195V16.6355ZM40.9678 14.4612V15.0815H39.7339V19.0965H38.9736V15.0815H37.7331V14.4612H40.9678ZM42.4914 14.4612V17.4158C42.4914 17.767 42.5826 18.0316 42.7649 18.2095C42.9516 18.3873 43.2095 18.4762 43.5385 18.4762C43.872 18.4762 44.1299 18.3873 44.3122 18.2095C44.4989 18.0316 44.5923 17.767 44.5923 17.4158V14.4612H45.3526V17.4025C45.3526 17.7804 45.2704 18.1005 45.1059 18.3629C44.9414 18.6252 44.7213 18.8208 44.4456 18.9498C44.1699 19.0787 43.8653 19.1432 43.5319 19.1432C43.1984 19.1432 42.8938 19.0787 42.6182 18.9498C42.3469 18.8208 42.1313 18.6252 41.9712 18.3629C41.8111 18.1005 41.7311 17.7804 41.7311 17.4025V14.4612H42.4914ZM49.1371 18.1494H47.1963L46.8628 19.0965H46.0691L47.7298 14.4545H48.6102L50.2709 19.0965H49.4706L49.1371 18.1494ZM48.9237 17.5292L48.17 15.3749L47.4097 17.5292H48.9237ZM51.7533 18.4829H53.3206V19.0965H50.993V14.4612H51.7533V18.4829Z" fill="white"/>
<mask id="mask1_1_515" style="mask-type:luminance" maskUnits="userSpaceOnUse" x="15" y="22" width="50" height="19">
<path d="M64.61 22.0966H15.7159V40.0966H64.61V22.0966Z" fill="white"/>
</mask>
<g mask="url(#mask1_1_515)">
<path d="M25.7364 30.2495C25.6041 29.8789 24.9423 29.6672 24.8099 29.6142C24.6776 29.5613 24.5452 29.5083 24.5452 29.5083C24.6247 29.8524 24.4394 30.1436 24.4394 30.1436H24.4658C24.4923 30.1172 24.5452 30.1436 24.5452 30.1436C25.207 30.3024 25.6835 30.7789 25.6835 30.7789C25.7099 30.7789 25.7099 30.7789 25.7099 30.7789C25.7364 30.6995 25.7364 30.6201 25.7364 30.5672C25.7364 30.5142 25.7364 30.3024 25.7364 30.2495ZM26.557 27.0466C26.4247 27.0995 25.9747 27.0201 25.8423 26.9407C25.7364 26.8613 25.657 26.8613 25.657 26.8613C25.207 26.7819 25.0482 27.0201 25.0217 27.0201C25.0217 27.0466 25.0217 27.0466 25.0217 27.0466C25.0217 27.0466 25.3129 26.9407 25.7629 27.1524C26.2394 27.3642 26.5305 27.073 26.5305 27.073C26.5835 27.0466 26.557 27.0466 26.557 27.0466ZM26.9276 37.926C27.007 37.423 26.2923 37.5024 26.2923 37.5024C26.2658 37.476 26.2658 37.476 26.2658 37.476C26.7952 37.3966 26.9541 37.6348 26.9541 37.6348C26.9541 37.3172 26.7158 37.2642 26.7158 37.2642H26.6894C26.6099 37.0789 26.2923 37.0524 26.1335 37.1583C25.9747 37.2642 25.8423 37.2642 25.8423 37.2642C25.207 37.3966 24.8364 36.8672 24.8364 36.8672C24.2276 35.9142 25.1276 36.0201 24.9952 34.9613C24.8629 33.9289 23.1158 33.6907 23.1158 33.6907C22.6394 33.6377 22.2688 34.5907 22.1894 34.8554C22.1099 35.1201 22.0305 35.1995 22.0305 35.1995C22.0041 35.2524 22.057 35.226 22.057 35.226C23.4864 35.4377 23.4335 36.2054 23.4335 36.2054C23.4335 36.3377 23.2217 36.3642 23.2217 36.3642C23.0894 36.3907 22.7982 36.5495 23.3011 36.8936C23.3541 36.9201 23.3805 36.9466 23.407 36.973C23.407 36.973 23.407 36.973 23.407 36.9995C23.3805 37.026 23.3276 37.0524 23.2482 37.1054C23.2482 37.1054 23.2217 37.1054 23.1423 37.1319C23.0894 37.1583 22.9835 37.2377 22.957 37.423C22.957 37.423 22.957 37.423 22.957 37.3966C22.9835 37.3966 23.0364 37.2642 23.2746 37.2907C23.407 37.2907 23.5394 37.2377 23.6717 37.1583C23.7246 37.1848 23.7776 37.2377 23.8305 37.2642C23.7776 37.2907 23.7511 37.2907 23.6982 37.3172C23.6982 37.3172 23.6452 37.3436 23.5923 37.3436C23.5394 37.3436 23.4335 37.423 23.3805 37.6083C23.3805 37.6083 23.3805 37.6083 23.3805 37.5819C23.3805 37.5819 23.4599 37.4495 23.6982 37.5024C23.8305 37.5289 23.9629 37.5024 24.0688 37.4495C24.1217 37.476 24.1482 37.5024 24.2011 37.5289C24.1482 37.5554 24.0952 37.5819 24.0158 37.6083C24.0158 37.6083 23.9629 37.6348 23.9099 37.6348C23.857 37.6348 23.7246 37.7142 23.6717 37.873C23.6982 37.8466 23.7511 37.7407 23.9894 37.7936C24.1482 37.8466 24.307 37.7936 24.4394 37.7407H24.4658C24.7835 37.9789 25.0482 38.2436 25.0482 38.4024C25.0482 38.7201 25.3129 38.7995 25.3129 38.7995C25.3129 38.9583 25.2335 38.9583 25.2335 38.9583C25.207 38.9848 25.2335 38.9848 25.2335 38.9848C25.4982 39.0113 25.5776 38.7995 25.5776 38.7995C25.8158 38.5877 25.7364 38.3495 25.7364 38.3495C26.0011 38.773 26.2658 38.6672 26.2658 38.6672V38.6936C26.2923 38.8789 26.1864 39.0377 26.1599 39.0377C26.1599 39.0642 26.1599 39.0642 26.1599 39.0642C26.5041 38.8524 26.5041 38.6407 26.5041 38.6407C26.5041 38.6142 26.5041 38.6142 26.5041 38.6142C26.8482 38.1907 26.1864 37.873 26.1864 37.873C26.4247 37.8995 26.5305 37.9789 26.557 38.0054C26.5835 38.0319 26.6099 38.1113 26.6894 38.1377C26.7688 38.1377 26.8482 38.1377 26.8482 38.1377C26.9011 38.1377 26.9276 38.323 26.9276 38.323C27.0864 38.0848 26.9276 37.926 26.9276 37.926ZM25.9217 28.7142C25.9217 28.7142 25.8423 28.6877 25.8688 28.7407C25.8688 28.7407 26.1864 29.1907 26.1599 29.323C26.1599 29.4289 26.1599 29.4289 26.107 29.4024C26.0805 29.4024 25.9482 29.4024 26.0276 29.5613C26.107 29.7466 26.2129 29.9054 26.107 30.1436V30.1701C26.0805 30.1701 26.0541 30.1172 25.9747 30.1966C25.9217 30.276 25.8952 30.5142 25.9217 30.7789C25.9217 30.7789 25.9217 30.8319 25.8688 30.8583C25.8158 30.8848 25.8688 30.9377 25.9482 30.9377C26.0011 30.9113 26.3982 30.7789 26.3982 30.7789C26.3982 30.7789 26.6099 30.726 26.7952 30.2495C26.9805 29.7466 27.8276 28.6613 27.8805 28.6348C27.9599 28.6083 28.1188 28.5289 28.1717 28.476C28.1982 28.423 28.2776 28.1583 28.3305 28.026H28.357C28.357 28.026 28.6217 28.1583 28.807 27.9466C28.807 27.9466 28.8864 27.973 28.9129 28.0789C28.9129 28.0789 28.9129 28.0789 28.9394 28.0789C28.9394 28.0789 28.9923 27.9201 28.8864 27.7613C28.8864 27.7613 28.8599 27.3642 28.3041 27.523C28.3041 27.523 28.3305 27.4701 28.4894 27.4172C28.6217 27.3907 28.6482 27.4172 28.7541 27.2583C28.7541 27.2583 28.807 27.1789 28.9394 27.3907C28.9394 27.3907 28.9394 27.3907 28.9658 27.3907C28.9658 27.3907 29.0452 27.2054 28.8335 27.0466C28.8335 27.0201 28.807 26.7024 28.4099 26.7554C28.4099 26.7554 28.1452 26.7819 27.9599 27.0466C27.9599 27.0201 28.0129 26.8877 28.1982 26.7554C28.1982 26.7554 28.3041 26.7024 28.3041 26.623C28.3305 26.5172 28.2511 26.4907 28.2776 26.4377C28.3305 26.3848 28.4099 26.3583 28.4629 26.3583C28.4629 26.3583 28.3835 26.1995 28.1188 26.3054C28.0923 26.3054 27.6158 26.1466 27.6158 26.8877C27.6158 26.8877 27.6158 26.9407 27.6158 26.9142C27.6158 26.9142 27.5364 26.8348 27.5629 26.5701C27.5629 26.5701 27.6158 26.4377 27.5099 26.4377H27.4835C27.4835 26.4377 27.5099 26.3054 27.5894 26.2789H27.6158C27.6158 26.2789 27.3511 26.1201 27.2188 26.7819C27.2188 26.7819 27.2188 27.0201 27.2717 27.126C27.2982 27.2319 27.3247 27.6289 27.0599 27.9466C27.0599 27.9466 26.3452 28.6877 25.9217 28.7142ZM22.7982 31.2289C23.8041 30.7789 24.1746 30.3819 24.307 30.0907C24.3335 30.0113 24.3599 29.9583 24.3864 29.9054C24.3864 29.826 24.3864 29.7201 24.3864 29.7201C24.3864 29.6142 24.3864 29.5083 24.3335 29.4289C24.307 29.376 24.2276 29.2966 24.1482 29.2436C24.0158 29.1377 23.9099 29.0054 23.9099 29.0054C23.9629 30.1966 22.8246 30.6466 22.8246 30.6466C22.7982 30.6466 22.7982 30.673 22.7982 30.673C22.8776 31.0701 22.7452 31.2024 22.7452 31.2289C22.7452 31.2554 22.7982 31.2289 22.7982 31.2289ZM23.8041 30.8054C23.8041 30.8054 24.2805 30.7789 24.3864 31.5201C24.3864 31.5201 24.3864 31.5466 24.4129 31.5466C24.4129 31.5466 25.0747 31.0436 25.1011 30.5407C25.1011 30.5407 25.1011 30.5142 25.0747 30.5142C25.0747 30.5142 24.8364 30.3289 24.4129 30.223H24.3864C24.3864 30.223 24.2276 30.5407 23.8041 30.8054ZM23.1423 22.0966C18.9335 22.2024 15.6246 25.6966 15.7305 29.9054C15.7835 32.076 16.7629 34.0083 18.2717 35.3583L18.2982 35.3848L18.3511 35.3583C18.4305 35.226 18.6158 35.1201 18.7217 35.1201H18.8541C18.8541 35.1201 18.8541 35.1201 18.8541 35.0936L18.7482 35.0142C18.6688 34.9348 18.5894 34.8819 18.5099 34.776C17.2129 33.5583 16.3658 31.8113 16.3129 29.8789C16.2599 27.9466 17.0011 26.173 18.2452 24.876C19.4894 23.5789 21.2099 22.7319 23.1423 22.6789C25.1011 22.626 26.8482 23.3672 28.1717 24.6113C29.4688 25.8554 30.2894 27.576 30.3423 29.5083C30.3952 31.4672 29.6541 33.2407 28.4099 34.5377C27.5894 35.4113 26.5835 36.0466 25.3923 36.4172H25.3394V36.4436L25.3658 36.4701C25.4452 36.7083 25.6041 36.8142 25.7099 36.8936L25.7364 36.9201L25.7629 36.8936C28.8864 35.9142 31.0041 33.0024 30.9247 29.5613V29.5083C30.8188 25.2995 27.3247 21.9907 23.1423 22.0966ZM24.2541 25.7495H24.2276C24.4129 25.8554 24.6776 26.0936 24.7835 25.776C24.6511 25.6172 24.3864 25.723 24.2541 25.7495ZM21.2099 38.3495C21.2099 38.3495 21.2099 38.3495 21.2099 38.323C21.2099 38.323 21.5541 37.9789 21.9246 38.3495C21.9246 38.3495 21.9511 38.376 21.9511 38.3495C21.9511 38.3495 21.9246 38.1113 21.7129 38.0054C21.6599 37.9789 21.6335 38.0054 21.6335 38.0054H21.607C21.5276 37.9524 21.4746 37.926 21.3423 37.9524C21.3423 37.9524 21.1305 37.9789 20.9982 38.0583C20.8923 38.1642 20.7864 38.1377 20.7335 38.0848C20.6541 38.0319 20.0982 37.2907 20.0717 36.4701C20.0717 36.4701 20.0982 36.4172 20.1511 36.3907C20.1511 36.3907 21.1041 35.9142 21.4746 35.5436C21.8452 35.173 22.1364 34.1142 22.507 33.7172C22.507 33.7172 22.6658 33.5054 22.8511 33.4524C23.0099 33.3995 23.7776 33.1613 23.9894 33.0289C24.2011 32.8966 24.5717 32.473 24.8099 32.4466C24.8099 32.4466 24.8629 32.3936 24.9158 32.473L25.7894 33.2672C25.7894 33.2672 25.9217 33.3995 26.0541 33.426C26.1864 33.426 26.3982 33.5054 26.3982 33.6377C26.4247 33.7701 26.3188 34.1407 26.5305 34.273C26.5305 34.273 26.5835 34.3524 26.4511 34.4319C26.4511 34.4319 26.4247 34.4583 26.4511 34.4583C26.4511 34.4583 27.1394 34.4848 26.9805 33.9024C26.9805 33.9024 26.9805 33.876 27.007 33.876C27.007 33.876 27.1658 33.9819 27.2452 34.2201C27.3247 34.4583 27.457 34.4848 27.457 34.4848C27.457 34.4848 27.4835 34.5113 27.4835 34.5377C27.4835 34.5377 27.5099 34.6172 27.4041 34.7495C27.4041 34.7495 27.6952 34.7495 27.6952 34.5642C27.6952 34.5642 27.8541 34.5113 27.907 34.4319C27.9599 34.326 28.0658 33.9024 27.5364 33.5848C27.5364 33.5848 27.8011 33.5583 27.9335 33.823C28.0923 34.0877 28.1982 33.7701 28.2511 34.0613V34.0877C28.2511 34.0877 28.4364 33.9819 28.3041 33.7436V33.7172C28.3041 33.7172 28.4364 33.2672 27.7747 33.1613H27.7482C27.7482 33.1613 27.8276 33.0819 28.0129 33.1613C28.1982 33.2142 28.2776 33.1613 28.2776 33.0819C28.2776 33.0819 28.3835 33.0819 28.4629 33.1877C28.4629 33.1877 28.4894 32.6054 27.5364 32.7642C27.5364 32.7642 27.2982 32.8701 27.0864 32.7113C26.8482 32.5524 25.7099 31.4407 25.7099 31.4407C25.7099 31.4407 25.6305 31.3348 25.6041 31.2819C25.5776 31.2289 25.4982 30.9113 25.4982 30.8319C25.4982 30.8319 25.4982 30.8319 25.4717 30.8054C25.4717 30.8054 25.3129 30.673 25.2335 30.6201C25.2335 30.6201 25.1541 31.2289 24.3335 31.7319C24.3335 31.7319 24.2276 31.7583 24.2276 31.6789C24.2276 31.626 24.0423 30.6995 23.5129 30.9907C22.957 31.3083 22.5599 31.4936 22.4805 31.4407C22.4541 31.4407 22.4541 31.3877 22.4805 31.3613C22.5335 31.3348 22.7188 31.0436 22.6658 30.726H22.6394C22.6394 30.726 22.5864 30.7524 22.507 30.7789C22.1099 30.9113 21.8452 31.0436 21.7129 31.1495C21.6864 31.1495 21.6335 31.176 21.607 31.2024C21.5276 31.2819 21.2364 31.5201 20.8129 31.7319C20.3894 31.9436 19.7011 32.3142 19.5158 32.8436C19.357 33.373 18.7482 33.4789 18.4041 33.0554C18.0599 32.6583 18.4041 31.9172 19.9129 30.8583C19.9129 30.8583 20.3629 30.5672 20.5217 30.1172C20.6805 29.6672 20.5746 29.5348 20.5482 29.3495C20.5217 29.1642 20.6541 28.926 20.707 28.873C20.7335 28.8201 20.707 28.6613 20.707 28.6877C20.707 28.6877 20.6541 28.7936 20.5217 28.8201C20.3894 28.8466 20.3629 28.873 20.3629 28.8995C20.3629 28.8995 20.3364 28.8995 20.3364 28.873C20.3364 28.873 20.3364 28.7672 20.4688 28.6877C20.6011 28.5819 20.6276 28.3701 20.6011 28.2377C20.6011 28.1054 20.6276 28.0524 20.6541 28.026C20.6541 28.026 20.5746 28.0524 20.4952 28.1319C20.4952 28.1054 20.3894 27.6554 20.6276 27.4172C20.6805 27.3907 20.7335 27.1524 20.5482 26.9142C20.3629 26.676 20.3629 26.5966 20.3629 26.5966C20.3629 26.5966 20.3364 26.5966 20.3364 26.676C20.3629 26.7554 20.3099 26.8348 20.3099 26.8877C20.2835 26.9142 20.2835 27.0201 20.3099 27.073C20.3099 27.073 20.1776 26.8613 20.2041 26.676C20.2305 26.4907 20.3629 26.173 20.2041 26.0142C20.2041 26.0142 20.1776 25.9877 20.2041 26.0407C20.2041 26.0407 20.2305 26.3319 19.9658 26.623C19.7011 26.8877 19.9923 27.2583 20.0982 27.4172C20.2041 27.5495 20.0982 27.7877 20.1246 27.8672C20.1246 27.8672 20.0982 27.8142 20.0982 27.7877C20.0982 27.7348 20.0717 27.5495 19.9658 27.4966C19.9658 27.4966 19.9658 27.4966 19.9658 27.523C19.9658 27.523 19.9658 27.6554 19.9394 27.7348C19.9129 27.7877 19.9129 27.9995 20.0452 28.1319C20.1776 28.2642 20.0717 28.6613 19.9923 28.7142C19.9923 28.7142 19.9923 28.7142 19.9923 28.6877C19.9923 28.6613 19.9923 28.6083 20.0188 28.5819C20.0452 28.5289 20.0452 28.3436 20.0188 28.3172C20.0188 28.3172 19.9923 28.4495 19.807 28.5819C19.7276 28.6348 19.6482 28.8995 19.8864 29.1642C19.8864 29.1642 19.9658 29.2436 20.0188 29.323C20.0188 29.323 19.8335 29.2966 19.807 29.1907C19.807 29.1907 19.807 29.1907 19.7805 29.1907C19.7805 29.1907 19.7541 29.4554 20.0188 29.5348C20.2041 29.5613 20.3629 30.1172 19.4099 30.673C19.2246 30.7524 19.0394 30.8848 18.8541 31.0436C18.8011 31.0172 18.6688 30.9377 18.4835 30.673C18.4835 30.673 18.457 30.6201 18.457 30.5672C18.4305 30.5142 18.3246 30.4083 18.1658 30.3819V30.4083C18.1658 30.4083 18.2982 30.4613 18.2982 30.6995C18.2982 30.9113 18.457 31.1495 18.6158 31.2289C18.6158 31.2289 18.6158 31.2289 18.5894 31.2554C18.5364 31.3083 18.4835 31.3877 18.4305 31.4407C18.3776 31.3613 18.2982 31.2819 18.2452 31.176C18.2452 31.176 18.2188 31.123 18.1923 31.0701C18.1923 31.0172 18.0864 30.9113 17.9276 30.8583C17.9276 30.8583 17.9276 30.8583 17.9276 30.8848C17.9541 30.8848 18.0599 30.9377 18.0599 31.176C18.0335 31.3613 18.1394 31.5466 18.2452 31.6524V31.6789C18.1923 31.7319 18.1394 31.7848 18.1129 31.8642C18.0599 31.7848 18.007 31.7054 17.9541 31.5995C17.9541 31.5995 17.9276 31.5466 17.9276 31.4936C17.9011 31.4407 17.8217 31.3083 17.6629 31.2554C17.6894 31.2554 17.7952 31.3348 17.7688 31.573C17.7158 31.7848 17.8217 32.0495 17.9541 32.1289C17.9541 32.1289 17.9541 32.1289 17.9541 32.1554C17.7952 32.5524 17.7688 33.0024 18.0335 33.3995C18.5629 34.1672 19.4099 33.7172 19.4099 33.7172C19.4099 33.7172 19.4629 33.6642 19.4629 33.7172C19.4629 33.7172 19.5423 34.3524 19.7011 34.723C19.8599 35.0936 19.6482 35.3583 19.2776 35.4113C18.907 35.4642 18.5894 35.6495 18.6952 36.073C18.7482 36.1789 18.8011 36.3642 18.8805 36.576C18.8011 36.576 18.6952 36.576 18.5894 36.576C18.5894 36.576 18.5364 36.576 18.4835 36.5495C18.4305 36.523 18.2982 36.5495 18.1658 36.6554C18.1923 36.6554 18.2982 36.576 18.4835 36.7348C18.6158 36.8407 18.8276 36.8672 18.9599 36.8672H18.9864C19.0129 36.9201 19.0394 36.9995 19.0658 37.0524C18.9864 37.0524 18.907 37.026 18.8276 36.9995C18.8276 36.9995 18.7746 36.9995 18.7217 36.973C18.6688 36.9466 18.5364 36.9466 18.3776 37.0524C18.3776 37.0524 18.3776 37.0524 18.4041 37.0524C18.4041 37.026 18.5364 36.973 18.6952 37.1583C18.8276 37.2907 19.0129 37.3436 19.1717 37.3436C19.1982 37.3701 19.1982 37.423 19.2246 37.4495C19.1452 37.4495 19.0394 37.423 18.907 37.3966C18.907 37.3966 18.8541 37.3966 18.8276 37.3701C18.7746 37.3436 18.6158 37.3436 18.4835 37.423C18.5099 37.423 18.6423 37.3701 18.8011 37.5554C18.9335 37.6877 19.1717 37.7672 19.3305 37.7407C19.4364 38.0054 19.5158 38.1907 19.5158 38.1907C19.5158 38.1907 19.5688 38.5083 19.5423 38.6142C19.5158 38.7466 19.5952 38.9848 19.7805 39.0642C19.9658 39.1701 20.1246 39.4083 20.1246 39.4348C20.1246 39.4877 20.1246 39.7524 20.4423 39.8848C20.4423 39.8848 20.4952 39.8583 20.4952 39.9113C20.4952 39.9642 20.4423 40.0701 20.4423 40.0701C20.4423 40.0701 20.4423 40.0966 20.4688 40.0701C20.4952 40.0701 20.6276 40.0436 20.707 39.8848V39.8583C20.707 39.8583 20.8394 39.726 20.8658 39.5936C20.8923 39.4613 20.8394 39.3024 20.6011 39.1701V39.1436C20.6011 39.1436 20.6805 39.1436 20.7599 39.223C20.8129 39.276 20.9717 39.4083 20.9982 39.4348C21.0246 39.4613 21.1835 39.6201 21.4217 39.5936C21.4217 39.5936 21.4482 39.5672 21.4482 39.5936C21.4746 39.5936 21.5276 39.6466 21.5011 39.8583V39.8848C21.5011 39.8583 21.7394 39.7789 21.6864 39.4877C21.6864 39.4877 21.6864 39.4877 21.6864 39.4613C21.6864 39.4613 21.7658 39.276 21.7658 39.1701C21.7394 39.0642 21.6599 38.826 21.2364 38.7466C21.2364 38.7466 21.3423 38.6672 21.5805 38.773C21.5805 38.773 21.607 38.773 21.6335 38.773C21.6335 38.7995 21.7129 38.9319 21.8982 38.8789C21.8982 38.8789 22.057 38.9054 22.0835 39.1172C22.0835 39.1172 22.2688 38.9319 22.0041 38.6672C22.0041 38.6672 21.8452 38.1377 21.2099 38.3495ZM24.9688 25.5113C24.9688 25.5113 24.9688 25.4848 24.9688 25.4583C24.9688 25.4583 24.9158 25.3789 24.8099 25.326C24.7305 25.273 24.5188 25.273 24.3599 25.273C24.2011 25.2995 24.0952 25.2466 23.9629 25.2201C23.857 25.1936 23.5658 25.1142 23.3805 25.2995C23.3805 25.2995 23.3541 25.326 23.3805 25.3524C23.3805 25.3524 23.4335 25.4583 23.5394 25.5377C23.6452 25.6172 23.857 25.776 24.0952 25.6966C24.0952 25.6966 24.2011 25.6701 24.2276 25.6436C24.2805 25.6172 24.3864 25.5377 24.4658 25.5377C24.5717 25.5377 24.6776 25.5642 24.6776 25.5642C24.7041 25.5642 24.7835 25.5907 24.7835 25.5907C24.7835 25.5907 24.9423 25.6172 24.9688 25.5113ZM22.3482 29.2172H22.3217C22.3482 29.2436 22.3746 29.2701 22.4276 29.2701C22.507 29.2701 22.7982 29.2172 22.8511 28.873C22.8776 28.5024 22.4276 28.0789 22.1629 27.8672C21.8452 27.6024 21.3952 27.3113 21.2894 26.9936C21.2894 26.9936 21.2099 27.1789 21.1041 27.3642C20.9982 27.576 21.0246 27.8407 21.0776 27.973C21.157 28.1583 21.2629 28.3436 21.2894 28.3966C21.3158 28.4495 21.3158 28.5289 21.4482 28.5819C21.5011 28.5819 21.6864 28.5819 21.7923 28.476C21.8717 28.423 21.9246 28.3172 21.9246 28.2377C21.9246 27.9201 21.6335 27.9466 21.6599 28.0524C21.6599 28.0789 21.7129 28.0789 21.6864 28.1319C21.6599 28.1583 21.607 28.1848 21.5541 28.1583C21.5011 28.1583 21.3688 27.973 21.6335 27.8672C21.8717 27.7877 22.1629 27.9995 22.1099 28.3172C22.057 28.6348 21.6335 28.7672 21.4217 28.7142H21.3952C21.3952 28.7407 21.3952 28.8201 21.3688 28.8995C21.3158 28.9524 21.1041 29.5613 21.4746 30.1966C21.4746 30.1966 21.5541 30.3024 21.7394 30.3024C21.9246 30.3024 22.1364 30.0377 22.0041 29.8524C21.9776 29.826 21.9776 29.826 21.9776 29.8524C21.9776 29.8524 21.9776 29.9583 21.8717 29.9054C21.7129 29.8524 21.7394 29.6407 21.9246 29.5877C22.1099 29.5348 22.3217 29.6142 22.2423 29.9848C22.1629 30.3554 21.7923 30.4877 21.7129 30.4613C21.6599 30.4613 21.6599 30.4613 21.6599 30.4877C21.6599 30.4877 21.7658 30.8054 21.7129 30.9642C21.7129 30.9642 21.6864 31.0172 21.7658 30.9642C21.7658 30.9642 22.0305 30.8319 22.2423 30.7524C22.4276 30.673 22.957 30.5407 23.3541 30.0377C23.7511 29.5083 23.9364 28.7407 23.3805 27.8936C23.3011 27.7613 23.2217 27.523 22.7188 27.3377C22.7188 27.3377 22.6129 27.3113 22.6923 27.2583C22.6923 27.2583 22.7188 27.2319 22.8246 27.2583C22.8246 27.2583 23.3541 27.3377 23.6717 28.0524C23.9629 28.7672 24.0952 29.0848 24.4923 29.2966C24.9158 29.5083 25.7099 29.773 25.8423 30.0642C25.8423 30.0642 25.8952 30.1436 25.9217 30.0377C25.9482 29.9319 25.9482 29.7995 25.8423 29.5877C25.7629 29.376 25.7629 29.323 25.8423 29.323C25.9482 29.323 25.9482 29.323 25.9482 29.2701C25.9482 29.2172 25.8688 28.5819 24.7305 28.5819C24.7305 28.5819 24.6247 28.6083 24.6511 28.5289C24.6776 28.476 24.757 28.476 24.8629 28.476C24.9952 28.476 25.5776 28.5289 25.7629 28.6877C25.7629 28.6877 25.8423 28.7407 25.7894 28.6348C25.7364 28.5024 25.4452 27.9995 24.4923 27.7877C23.5394 27.576 23.5394 26.9142 23.5394 26.9142C23.5394 26.9142 23.5658 26.8083 23.6452 26.9672C23.9364 27.6289 25.0217 27.7348 25.0747 27.7613C25.1541 27.7613 25.2599 27.8407 25.3129 27.7877C25.4452 27.6554 25.4717 27.4172 25.3923 27.3113C25.3923 27.3113 25.3923 27.2583 25.3658 27.2848C25.3394 27.3113 25.2599 27.3642 25.2335 27.3642C25.2335 27.3642 25.2335 27.3642 25.2335 27.3377C25.207 27.3377 25.1541 27.2319 25.1541 27.1789C25.1541 27.1789 25.0747 27.3377 25.0217 27.3907C25.0217 27.3907 25.0217 27.4172 24.9952 27.4172C24.9952 27.4172 24.5452 27.3907 24.4923 27.0201C24.4394 26.676 24.5982 26.4377 24.9952 26.4907C24.9952 26.4907 25.0747 26.5172 25.1011 26.5436C25.1276 26.5701 25.1805 26.7024 25.1805 26.7024V26.7289L25.2599 26.623C25.2599 26.623 25.2864 26.5966 25.2864 26.623L25.4982 26.676C25.4982 26.676 25.5247 26.7024 25.5247 26.676C25.5247 26.676 25.6041 26.623 25.657 26.4642C25.6835 26.3319 25.7099 26.1466 25.6835 26.1466C25.6835 26.1466 25.4982 26.0407 25.4717 26.0142V25.9877C25.4717 25.9877 25.5247 25.9877 25.7099 26.0407C25.7099 26.0407 25.7629 26.0407 25.7364 26.0407C25.7364 26.0142 25.7364 26.0142 25.7364 26.0142C25.7364 26.0142 25.657 25.8819 25.4452 25.8024C25.1805 25.6966 25.1011 25.6701 24.9688 25.6966C24.9688 25.6966 24.9423 25.6966 24.9158 25.6966C24.9158 25.6966 24.8364 26.0142 24.5452 26.0407C24.5452 26.0407 24.4658 26.0407 24.3599 25.9613C24.2541 25.8819 24.2276 25.8819 24.0423 25.8554C23.8835 25.8289 23.4864 25.7495 23.3011 25.4583C23.0894 25.1407 23.0099 25.0083 22.5864 25.2201C22.1629 25.4319 22.0041 25.4319 21.6864 25.1407H21.6599C21.6599 25.1407 21.6864 25.1936 21.6335 25.3789C21.607 25.5642 21.6599 25.6701 21.7129 25.723C21.7394 25.8024 21.7394 25.9613 21.9776 26.0407C22.1894 26.1201 22.2952 25.9877 22.507 26.1201H22.5335C22.5335 26.1201 22.5599 26.1466 22.5335 26.1466C22.507 26.1466 22.4805 26.1466 22.4805 26.1466C22.4805 26.1466 22.4011 26.0936 22.3217 26.0936C22.2423 26.1201 22.1364 26.1466 22.0835 26.1466C22.0305 26.1466 21.8188 26.1466 21.7394 26.0142C21.7394 26.0142 21.7394 26.0142 21.7394 26.0407C21.7394 26.0407 21.7129 26.1995 21.5011 26.4907C21.3158 26.7819 21.5011 27.0995 21.9511 27.4701C22.4011 27.8407 22.9305 28.2642 23.0099 28.6613C23.0894 29.0319 22.8246 29.4024 22.5335 29.4289C22.2158 29.4554 22.057 29.1377 22.2688 29.0319C22.5335 28.8995 22.5335 29.323 22.3482 29.2172ZM47.8658 35.9407L48.3158 34.273H48.3423L48.7923 35.9407H47.8658ZM47.9452 33.823L46.8335 37.2113H47.4952L47.7335 36.3642H48.8982L49.1364 37.2113H49.7982L48.7658 33.823H47.9452ZM46.1188 36.3377H46.0923L44.9541 33.823H44.1864V37.2113H44.7952V34.6172L45.9335 37.2113H46.7011V33.823H46.1188V36.3377ZM42.4923 36.8672C42.0952 36.8672 41.8041 36.6554 41.8041 35.4907C41.8041 34.3524 42.0952 34.1672 42.4923 34.1672C42.8629 34.1672 43.1541 34.3524 43.1541 35.4907C43.1541 36.6554 42.8629 36.8672 42.4923 36.8672ZM42.4923 33.7701C41.5658 33.7701 41.1688 34.2995 41.1688 35.5172C41.1688 36.7348 41.5658 37.2642 42.4923 37.2642C43.3923 37.2642 43.7894 36.7348 43.7894 35.5172C43.7894 34.2995 43.3923 33.7701 42.4923 33.7701ZM64.4629 33.823H63.7747L62.5835 35.3054H62.557V33.823H61.9482V37.2113H62.557V36.0995L62.9276 35.676L63.8805 37.2113H64.5952L63.3247 35.2524L64.4629 33.823ZM40.1629 37.2113H40.7982V33.823H40.1629V37.2113ZM50.5394 33.823H49.9041V37.2113H52.0747V36.7613H50.5394V33.823ZM56.8923 35.9407L57.3688 34.273H57.3952L57.8452 35.9407H56.8923ZM56.9982 33.823L55.86 37.2113H56.5217L56.7864 36.3642H57.9511L58.1894 37.2113H58.8511L57.8188 33.823H56.9982ZM60.8894 36.3377L59.7247 33.823H58.957V37.2113H59.5658V34.6172L60.7305 37.2113H61.4982V33.823H60.8894V36.3377ZM54.6952 36.7877H54.06V35.623H54.6688C55.0129 35.623 55.2776 35.8348 55.2776 36.2054C55.2776 36.6024 55.0658 36.7877 54.6952 36.7877ZM54.06 34.2201H54.51C54.8805 34.2201 55.1452 34.2995 55.1452 34.723C55.1452 35.0407 54.96 35.2524 54.5629 35.2524H54.06V34.2201ZM55.1982 35.4113C55.5952 35.3054 55.7805 35.0672 55.7805 34.6436C55.7805 34.0348 55.3041 33.823 54.7217 33.823H53.4247V37.2113H54.6952C55.4364 37.2113 55.9129 36.8407 55.9129 36.2848C55.9129 35.7024 55.6217 35.4907 55.1982 35.4113ZM36.0599 35.9407L36.5099 34.273H36.5364L36.9864 35.9407H36.0599ZM36.1394 33.823L35.0276 37.2113H35.6894L35.9276 36.3642H37.0923L37.3305 37.2113H37.9923L36.9599 33.823H36.1394ZM37.5158 34.273H38.4423V37.2113H39.0776V34.273H40.0041V33.823H37.5158V34.273ZM34.3129 36.3377H34.2864L33.1482 33.823H32.3805V37.2113H32.9894V34.6172L34.1276 37.2113H34.8952V33.823H34.3129V36.3377ZM62.3717 24.2672V29.376C62.3717 30.4613 61.9747 31.0172 60.8894 31.0172C59.8041 31.0172 59.407 30.4613 59.407 29.376V24.2672H57.21V29.2436C57.21 31.7054 58.3217 32.923 60.8894 32.923C63.457 32.923 64.5952 31.7054 64.5952 29.2436V24.2672H62.3717ZM44.4776 25.9877C45.907 25.9877 46.4364 27.2319 46.4364 28.5024C46.4364 29.773 45.907 31.0172 44.4776 31.0172C43.0482 31.0172 42.4923 29.773 42.4923 28.5024C42.4923 27.2319 43.0482 25.9877 44.4776 25.9877ZM44.4776 32.923C47.1511 32.923 48.66 30.9642 48.66 28.5024C48.66 26.0407 47.1511 24.0819 44.4776 24.0819C41.8041 24.0819 40.2952 26.0407 40.2952 28.5024C40.2952 30.9642 41.8041 32.923 44.4776 32.923ZM53.2394 30.9642H51.4658V29.0319H53.2394C53.9276 29.0319 54.4305 29.2701 54.4305 30.0113C54.4305 30.726 53.9541 30.9642 53.2394 30.9642ZM51.4658 25.9613H53.1864C53.6629 25.9613 54.0864 26.173 54.0864 26.7819C54.0864 27.3907 53.5835 27.6024 53.1864 27.6024H51.4658V25.9613ZM56.6541 30.1172C56.6541 29.1377 56.0982 28.3701 55.1982 28.1054C55.86 27.7613 56.31 27.1524 56.31 26.3848C56.31 24.6113 54.6952 24.2407 53.2394 24.2672H49.2688V32.7377H53.3452C55.1717 32.7377 56.6541 32.1289 56.6541 30.1172ZM34.4452 27.4436H34.4717L37.4364 32.7377H39.6864V24.2672H37.6217V29.4819H37.5952L34.6305 24.2672H32.3805V32.7377H34.4452V27.4436Z" fill="white"/>
</g>
</g>
</g>
<defs>
<clipPath id="clip0_1_515">
<rect width="80" height="43" fill="white"/>
</clipPath>
</defs>
</svg>
