<svg width="80" height="43" viewBox="0 0 80 43" fill="none" xmlns="http://www.w3.org/2000/svg">
<path d="M31.3648 16.1425L29.6241 20.7778H28.7437L26.9963 16.1425H27.81L29.1839 19.9975L30.5645 16.1425H31.3648ZM32.761 16.1425V20.7778H32.0006V16.1425H32.761ZM36.1669 20.7778L35.0998 18.9237H34.5195V20.7778H33.7592V16.1425H35.3599C35.7156 16.1425 36.0157 16.2048 36.2602 16.3293C36.5092 16.4538 36.6938 16.6205 36.8138 16.8295C36.9383 17.0385 37.0006 17.2719 37.0006 17.5298C37.0006 17.8321 36.9116 18.1078 36.7338 18.3568C36.5604 18.6014 36.2914 18.7681 35.9268 18.857L37.0739 20.7778H36.1669ZM34.5195 18.3168H35.3599C35.6444 18.3168 35.8579 18.2457 36.0001 18.1034C36.1469 17.9611 36.2202 17.7699 36.2202 17.5298C36.2202 17.2897 36.1491 17.103 36.0068 16.9696C35.8645 16.8317 35.6489 16.7628 35.3599 16.7628H34.5195V18.3168ZM40.9678 16.1425V16.7628H39.734V20.7778H38.9736V16.7628H37.7331V16.1425H40.9678ZM42.4915 16.1425V19.0971C42.4915 19.4484 42.5826 19.7129 42.7649 19.8908C42.9517 20.0686 43.2095 20.1576 43.5386 20.1576C43.872 20.1576 44.1299 20.0686 44.3122 19.8908C44.499 19.7129 44.5923 19.4484 44.5923 19.0971V16.1425H45.3527V19.0838C45.3527 19.4617 45.2704 19.7819 45.1059 20.0442C44.9414 20.3065 44.7213 20.5022 44.4456 20.6311C44.1699 20.76 43.8654 20.8245 43.5319 20.8245C43.1984 20.8245 42.8939 20.76 42.6182 20.6311C42.347 20.5022 42.1313 20.3065 41.9712 20.0442C41.8112 19.7819 41.7311 19.4617 41.7311 19.0838V16.1425H42.4915ZM49.1371 19.8308H47.1963L46.8628 20.7778H46.0692L47.7299 16.1359H48.6102L50.2709 20.7778H49.4706L49.1371 19.8308ZM48.9237 19.2105L48.1701 17.0563L47.4097 19.2105H48.9237ZM51.7533 20.1642H53.3207V20.7778H50.993V16.1425H51.7533V20.1642Z" fill="white"/>
<path d="M37.6045 32.529C37.399 31.5971 36.7274 30.6103 35.9462 30.0758V30.021C37.07 28.9521 37.3031 27.472 36.6863 26.0604C35.9462 24.3748 34.1647 23.8677 32.4653 23.7992C30.766 23.7307 29.0254 23.854 27.3124 23.7992V37.7779H33.4794C36.3437 37.6133 38.2487 35.4206 37.6045 32.529ZM29.9163 26.2112C30.8893 26.2797 31.9582 26.1153 32.9176 26.2523C34.5758 26.499 34.7814 28.1161 33.8083 29.2673H29.9163V26.2112ZM33.2465 35.3247H29.9163V31.7204H33.4794C33.8358 31.7204 34.384 32.0082 34.6306 32.2686C35.6722 33.4335 34.8088 35.3247 33.2465 35.3247Z" fill="white"/>
<path d="M45.7313 32.4467C47.5129 31.9534 48.897 30.5006 49.0341 28.6095C49.2808 25.3203 47.1292 23.9087 44.1142 23.7992C42.2914 23.7307 40.4414 23.854 38.6186 23.7992V37.7778H41.2636V32.6112H42.73L46.3754 37.7778H49.4863L45.7313 32.4467ZM41.2636 30.158V26.2112C42.3463 26.2934 43.566 26.1015 44.6212 26.2522C45.9506 26.4579 46.7043 27.609 46.2246 28.8972C46.0054 29.4865 45.2105 30.158 44.5527 30.158H41.2636Z" fill="white"/>
<path d="M53.0135 23.801V37.7739H50.299V23.8568C50.299 23.8287 50.4026 23.801 50.4292 23.801H53.0135Z" fill="white"/>
</svg>
