<svg width="80" height="43" viewBox="0 0 80 43" fill="none" xmlns="http://www.w3.org/2000/svg">
<path d="M31.3648 15.6924L29.6241 20.3277H28.7437L26.9963 15.6924H27.81L29.1839 19.5474L30.5645 15.6924H31.3648ZM32.761 15.6924V20.3277H32.0006V15.6924H32.761ZM36.1669 20.3277L35.0998 18.4736H34.5195V20.3277H33.7592V15.6924H35.3599C35.7156 15.6924 36.0157 15.7547 36.2602 15.8792C36.5092 16.0037 36.6938 16.1704 36.8138 16.3794C36.9383 16.5883 37.0006 16.8218 37.0006 17.0797C37.0006 17.382 36.9116 17.6577 36.7338 17.9067C36.5604 18.1512 36.2914 18.318 35.9268 18.4069L37.0739 20.3277H36.1669ZM34.5195 17.8667H35.3599C35.6444 17.8667 35.8579 17.7955 36.0001 17.6532C36.1469 17.511 36.2202 17.3198 36.2202 17.0797C36.2202 16.8396 36.1491 16.6528 36.0068 16.5194C35.8645 16.3816 35.6489 16.3127 35.3599 16.3127H34.5195V17.8667ZM40.9678 15.6924V16.3127H39.734V20.3277H38.9736V16.3127H37.7331V15.6924H40.9678ZM42.4915 15.6924V18.647C42.4915 18.9982 42.5826 19.2628 42.7649 19.4407C42.9517 19.6185 43.2095 19.7074 43.5386 19.7074C43.872 19.7074 44.1299 19.6185 44.3122 19.4407C44.499 19.2628 44.5923 18.9982 44.5923 18.647V15.6924H45.3527V18.6337C45.3527 19.0116 45.2704 19.3317 45.1059 19.5941C44.9414 19.8564 44.7213 20.052 44.4456 20.181C44.1699 20.3099 43.8654 20.3744 43.5319 20.3744C43.1984 20.3744 42.8939 20.3099 42.6182 20.181C42.347 20.052 42.1313 19.8564 41.9712 19.5941C41.8112 19.3317 41.7311 19.0116 41.7311 18.6337V15.6924H42.4915ZM49.1371 19.3806H47.1963L46.8628 20.3277H46.0692L47.7299 15.6857H48.6102L50.2709 20.3277H49.4706L49.1371 19.3806ZM48.9237 18.7604L48.1701 16.6061L47.4097 18.7604H48.9237ZM51.7533 19.7141H53.3207V20.3277H50.993V15.6924H51.7533V19.7141Z" fill="white"/>
<path d="M50.2261 23.3278L49.4481 23.8067C49.3684 23.8664 49.0094 24.1457 49.0094 24.2255V38.2281C48.8298 38.1882 48.6304 38.0485 48.4708 37.9289C46.6357 36.6522 45.3591 34.6576 43.9428 32.9621L39.0958 26.659V36.3731C39.0958 36.7121 39.9335 37.2707 40.133 37.5499H36.403C36.7221 37.1908 37.141 36.9515 37.3604 36.5127L37.3804 24.3451C37.3205 23.8664 36.6823 23.647 36.403 23.3278H39.7541C41.1104 25.3027 42.4269 27.2973 43.8431 29.2321L47.4135 33.8797V24.2255C47.4135 24.1855 47.0147 23.8465 46.9548 23.7667L46.3764 23.3278H50.2261Z" fill="white"/>
<path d="M34.7474 32.1842C34.3884 30.6084 32.9521 29.651 31.4163 29.4117L32.3338 28.8731C34.7873 26.5792 33.1517 23.6271 30.0798 23.3278H23.3977L24.0958 23.7667C24.2554 23.9263 24.4349 24.0858 24.5147 24.3053L24.5546 36.1935C24.4748 36.8318 23.8366 37.1509 23.3977 37.5499H29.7407C32.5931 37.2308 35.5453 35.5154 34.7474 32.1842ZM26.8484 24.7641H29.8006C29.8804 24.7641 30.3591 25.0433 30.4787 25.1231C31.4363 25.8212 31.6557 27.2973 30.9376 28.2547C30.7381 28.5141 29.9801 29.1722 29.681 29.1722H26.8484V24.7641ZM31.177 35.4954C30.9974 35.5951 30.2394 35.9342 30.0798 35.9342H26.8484V30.3292H30.0798C30.2993 30.3292 31.1171 30.6882 31.3564 30.8278C33.3711 32.0047 33.1117 34.3984 31.177 35.4954Z" fill="white"/>
<path d="M56.8684 37.5499H52.5598C52.9788 37.1311 53.5772 36.8318 53.6569 36.1935L53.637 24.3053C53.5372 24.0858 53.3578 23.9263 53.1982 23.7667L52.5598 23.3278H56.9282L55.9708 23.9661L55.7712 24.2654C55.6915 28.3145 55.6715 32.3837 55.7712 36.4329C55.9908 36.8718 56.3896 37.1509 56.7885 37.4102C56.8484 37.4502 56.8883 37.4102 56.8684 37.5499Z" fill="white"/>
</svg>
