<svg width="80" height="43" viewBox="0 0 80 43" fill="none" xmlns="http://www.w3.org/2000/svg">
<mask id="mask0_1_431" style="mask-type:luminance" maskUnits="userSpaceOnUse" x="8" y="15" width="64" height="19">
<path d="M71.6629 15.7333H8.6629V33.746H71.6629V15.7333Z" fill="white"/>
</mask>
<g mask="url(#mask0_1_431)">
<path fill-rule="evenodd" clip-rule="evenodd" d="M33.566 29.3954C34.7634 29.4811 36.1586 28.551 36.6501 28.0199C38.3587 26.1711 38.3999 23.4978 36.6798 21.5616C36.0399 20.8409 34.5358 20.0443 33.5842 20.1565H30.139V29.3838L33.5743 29.3954H33.566ZM32.0817 27.3965V22.1438C32.621 22.1084 33.162 22.1084 33.7013 22.1438C34.1256 22.193 34.5303 22.3496 34.8772 22.5989C36.8562 23.9513 36.0316 27.1755 33.6683 27.3916C33.1402 27.4287 32.6101 27.4303 32.0817 27.3965Z" fill="white"/>
<path fill-rule="evenodd" clip-rule="evenodd" d="M63.8111 29.4118H65.7753V27.423H69.6724L69.684 29.402H71.6482V26.1234C71.6482 25.1337 71.7306 23.9001 71.4833 23.0046C71.2586 22.1848 70.7719 21.461 70.0974 20.9435C69.423 20.4261 68.5978 20.1436 67.7478 20.1389C66.8977 20.1343 66.0695 20.4078 65.3894 20.9178C64.7093 21.4277 64.2147 22.1461 63.981 22.9634C63.7171 23.8474 63.8062 25.1157 63.8062 26.097C63.8062 27.2053 63.7946 28.3201 63.8062 29.4284L63.8111 29.4118ZM65.777 25.4225C65.7654 24.5978 65.678 23.7155 66.0656 23.0806C66.2357 22.7882 66.4802 22.5461 66.7743 22.3789C67.0683 22.2118 67.4013 22.1256 67.7395 22.1289C68.076 22.1315 68.4061 22.2212 68.6975 22.3894C68.9888 22.5577 69.2316 22.7987 69.402 23.0888C69.7846 23.7485 69.6939 24.5731 69.684 25.4241L65.777 25.4225Z" fill="white"/>
<path fill-rule="evenodd" clip-rule="evenodd" d="M41.3488 29.4102H43.3064C43.3064 28.9946 43.2536 27.7231 43.3246 27.4213H47.2068L47.22 29.4086H49.1809C49.171 28.3069 49.1809 27.2069 49.1809 26.1102C49.1809 25.1701 49.2683 23.8243 49.016 22.9898C48.7899 22.1711 48.3025 21.4486 47.6279 20.9324C46.9534 20.4162 46.1286 20.1345 45.2792 20.1302C44.4298 20.1259 43.6023 20.3992 42.9225 20.9086C42.2428 21.418 41.7481 22.1355 41.5137 22.9519C41.2515 23.8095 41.3406 25.1206 41.3406 26.0755C41.3406 27.1772 41.3158 28.3069 41.3406 29.4053L41.3488 29.4102ZM43.3081 25.4224C43.2949 24.5978 43.2108 23.704 43.5983 23.0822C43.7684 22.7906 44.0119 22.5487 44.3046 22.3806C44.5973 22.2125 44.929 22.124 45.2665 22.124C45.6041 22.124 45.9357 22.2125 46.2284 22.3806C46.5211 22.5487 46.7646 22.7906 46.9347 23.0822C47.319 23.7419 47.2266 24.5797 47.22 25.4191L43.3081 25.4224Z" fill="white"/>
<path fill-rule="evenodd" clip-rule="evenodd" d="M52.626 23.76L52.598 25.1338C52.598 26.2883 52.5419 28.4438 52.598 29.3822H54.5177C54.5622 28.7225 54.4484 24.0371 54.5688 23.887C54.5688 22.9766 55.5204 22.1289 56.4802 22.1256C56.9792 22.1226 57.4596 22.3143 57.8194 22.66C58.0635 22.8826 58.4378 23.3906 58.4312 23.9035C58.5203 23.9546 58.4494 28.8511 58.4774 29.3937H60.3988L60.3839 23.7946C60.4317 23.3559 60.1679 22.6781 59.998 22.3351C59.683 21.6815 59.1913 21.1291 58.5785 20.7406C57.9657 20.352 57.2564 20.1428 56.5309 20.1366C55.8053 20.1305 55.0925 20.3276 54.4732 20.7056C53.8539 21.0837 53.3529 21.6276 53.0268 22.2757C52.8619 22.6138 52.5848 23.3098 52.626 23.76Z" fill="white"/>
<path d="M17.6697 15.7333C22.6435 15.7336 26.6756 19.7662 26.6756 24.7402C26.6754 29.7138 22.6434 33.7458 17.6697 33.746C12.6958 33.746 8.66314 29.714 8.6629 24.7402C8.6629 19.7661 12.6956 15.7333 17.6697 15.7333ZM21.3074 21.2324C20.8326 21.1447 20.344 21.1564 19.8738 21.2665C19.3262 21.3942 18.7875 21.5599 18.2625 21.7617C17.5882 22.0007 16.9249 22.2823 16.2391 22.4951C15.7559 22.6589 15.2518 22.7535 14.742 22.7744C14.0289 22.7876 13.3289 22.58 12.7381 22.1806C12.6755 22.1395 12.6016 22.0715 12.5291 22.1122C12.4567 22.1534 12.4559 22.2493 12.4559 22.33V27.3105C12.453 27.3902 12.4716 27.4698 12.5096 27.54C12.5475 27.61 12.6035 27.6687 12.6717 27.7099C13.2158 28.0554 13.8422 28.2503 14.4861 28.2753C15.0673 28.2911 15.6476 28.2152 16.2049 28.0497C16.8776 27.8635 17.5239 27.623 18.1834 27.4003C18.8448 27.1496 19.5337 26.9767 20.2352 26.8857C20.878 26.8119 21.5296 26.8982 22.1307 27.1376C22.3296 27.2219 22.5226 27.3204 22.7078 27.4316C22.8462 27.5122 22.9168 27.4773 22.9168 27.3124V24.7773L22.9217 24.789V22.3154C22.9258 22.208 22.9011 22.1016 22.8504 22.0068C22.7997 21.9122 22.7251 21.8325 22.6336 21.7763C22.2338 21.5055 21.7823 21.3201 21.3074 21.2324Z" fill="white"/>
</g>
</svg>
