<svg width="80" height="43" viewBox="0 0 80 43" fill="none" xmlns="http://www.w3.org/2000/svg">
<path d="M31.3648 15.6425L29.6241 20.2778H28.7437L26.9963 15.6425H27.81L29.1839 19.4975L30.5645 15.6425H31.3648ZM32.761 15.6425V20.2778H32.0006V15.6425H32.761ZM36.1669 20.2778L35.0998 18.4237H34.5195V20.2778H33.7592V15.6425H35.3599C35.7156 15.6425 36.0157 15.7048 36.2602 15.8293C36.5092 15.9538 36.6938 16.1205 36.8138 16.3295C36.9383 16.5385 37.0006 16.7719 37.0006 17.0298C37.0006 17.3321 36.9116 17.6078 36.7338 17.8568C36.5604 18.1014 36.2914 18.2681 35.9268 18.357L37.0739 20.2778H36.1669ZM34.5195 17.8168H35.3599C35.6444 17.8168 35.8579 17.7457 36.0001 17.6034C36.1469 17.4611 36.2202 17.2699 36.2202 17.0298C36.2202 16.7897 36.1491 16.603 36.0068 16.4696C35.8645 16.3317 35.6489 16.2628 35.3599 16.2628H34.5195V17.8168ZM40.9678 15.6425V16.2628H39.734V20.2778H38.9736V16.2628H37.7331V15.6425H40.9678ZM42.4915 15.6425V18.5971C42.4915 18.9484 42.5826 19.2129 42.7649 19.3908C42.9517 19.5686 43.2095 19.6576 43.5386 19.6576C43.872 19.6576 44.1299 19.5686 44.3122 19.3908C44.499 19.2129 44.5923 18.9484 44.5923 18.5971V15.6425H45.3527V18.5838C45.3527 18.9617 45.2704 19.2819 45.1059 19.5442C44.9414 19.8065 44.7213 20.0022 44.4456 20.1311C44.1699 20.26 43.8654 20.3245 43.5319 20.3245C43.1984 20.3245 42.8939 20.26 42.6182 20.1311C42.347 20.0022 42.1313 19.8065 41.9712 19.5442C41.8112 19.2819 41.7311 18.9617 41.7311 18.5838V15.6425H42.4915ZM49.1371 19.3308H47.1963L46.8628 20.2778H46.0692L47.7299 15.6359H48.6102L50.2709 20.2778H49.4706L49.1371 19.3308ZM48.9237 18.7105L48.1701 16.5563L47.4097 18.7105H48.9237ZM51.7533 19.6642H53.3207V20.2778H50.993V15.6425H51.7533V19.6642Z" fill="white"/>
<path d="M14.4824 33.5916C14.4824 32.8484 14.4695 32.2244 14.4297 31.6669H15.8367L15.9033 32.6228H15.9419C16.2609 32.118 16.8452 31.5209 17.9343 31.5209C18.7838 31.5209 19.4475 31.9988 19.7257 32.7152H19.7525C19.9781 32.3575 20.2445 32.0912 20.5495 31.9054C20.9082 31.6541 21.3185 31.5209 21.8501 31.5209C22.9252 31.5209 24.0132 32.2512 24.0132 34.3219V38.1314H22.4204V34.5614C22.4204 33.4852 22.0488 32.8484 21.2658 32.8484C20.7084 32.8484 20.2971 33.2468 20.1242 33.7108C20.0844 33.8708 20.0447 34.0695 20.0447 34.2553V38.1314H18.4519V34.3874C18.4519 33.4852 18.0932 32.8484 17.3371 32.8484C16.726 32.8484 16.3146 33.3263 16.1686 33.7774C16.102 33.9374 16.0751 34.1232 16.0751 34.3079V38.1314H14.4824V33.5916Z" fill="white"/>
<path d="M30.2189 36.5789C30.2189 37.162 30.2458 37.7334 30.3123 38.1319H28.8388L28.7325 37.4155H28.6927C28.2943 37.9192 27.6166 38.2779 26.781 38.2779C25.4804 38.2779 24.75 37.335 24.75 36.3533C24.75 34.7198 26.1967 33.897 28.5864 33.9099V33.8036C28.5864 33.3794 28.4135 32.6759 27.2718 32.6759C26.6349 32.6759 25.9712 32.8746 25.533 33.1538L25.214 32.0916C25.6919 31.7995 26.5286 31.5203 27.5511 31.5203C29.6217 31.5203 30.2189 32.8349 30.2189 34.2418V36.5789ZM28.6261 34.9721C27.4716 34.9453 26.3696 35.1977 26.3696 36.1793C26.3696 36.8173 26.781 37.1094 27.2986 37.1094C27.9495 37.1094 28.4274 36.6841 28.5724 36.2201C28.6132 36.1009 28.6261 35.9677 28.6261 35.8614V34.9721Z" fill="white"/>
<path d="M31.3474 33.5916C31.3474 32.8484 31.3345 32.2244 31.2948 31.6669H32.7286L32.808 32.6357H32.8478C33.127 32.1309 33.8294 31.5209 34.9056 31.5209C36.0333 31.5209 37.2018 32.2512 37.2018 34.295V38.1314H35.5693V34.4808C35.5693 33.5518 35.2235 32.8484 34.3342 32.8484C33.6845 32.8484 33.2323 33.3134 33.0604 33.8042C33.0067 33.9503 32.9939 34.149 32.9939 34.3348V38.1314H31.3474V33.5916Z" fill="white"/>
<path d="M44.2805 29.069V36.3132C44.2805 36.977 44.3073 37.6933 44.3342 38.1315H42.8735L42.8069 37.1102H42.7801C42.3956 37.8265 41.6126 38.2776 40.6697 38.2776C39.1295 38.2776 37.9084 36.963 37.9084 34.9718C37.8955 32.8087 39.2498 31.521 40.8028 31.521C41.6921 31.521 42.329 31.8926 42.6211 32.3705H42.648V29.069H44.2805ZM42.648 34.3618C42.648 34.2286 42.6351 34.0696 42.6082 33.9375C42.4622 33.2996 41.9445 32.7819 41.2013 32.7819C40.152 32.7819 39.5677 33.7109 39.5677 34.9192C39.5677 36.1006 40.152 36.963 41.1873 36.963C41.8511 36.963 42.4353 36.5119 42.5943 35.8085C42.6351 35.6624 42.648 35.5034 42.648 35.3305V34.3618Z" fill="white"/>
<path d="M47.0825 31.6678H45.436V38.1323H47.0825V31.6678Z" fill="white"/>
<path d="M48.2366 33.7511C48.2366 32.8747 48.2237 32.2508 48.1829 31.6676H49.6038L49.6564 32.9017H49.7101C50.0291 31.9866 50.7852 31.6676 51.4758 31.6676C51.6347 31.6676 51.7282 31.6408 51.8614 31.6676V33.1003C51.7282 33.0746 51.5821 33.0477 51.3823 33.0477C50.5994 33.0477 50.0688 33.5514 49.9228 34.2818C49.8959 34.4289 49.8691 34.6007 49.8691 34.7865V38.1321H48.2366V33.7511Z" fill="white"/>
<path d="M54.2625 31.6678H52.616V38.1323H54.2625V31.6678Z" fill="white"/>
<path d="M52.2793 23.8411C51.289 24.4153 48.0604 26.2601 48.0604 26.2601C46.8477 26.7599 45.9177 26.1514 45.6173 25.7044C45.6042 25.6873 45.5911 25.6687 45.5811 25.6512L45.5434 25.5844L45.3385 25.2495C45.2504 25.1109 45.153 24.9686 45.0418 24.8238C44.9427 24.6961 44.8318 24.5688 44.7117 24.4471C43.9324 23.6607 42.6872 23.1085 40.6126 24.095C39.3573 24.8123 36.4395 26.4799 36.4395 26.4799L36.4383 26.4815C35.238 27.1667 34.3028 27.7016 34.3028 27.7016L35.4075 29.0582C35.8726 29.5016 36.746 30.2279 38.0996 29.6157C38.0996 29.6157 41.8325 27.4545 41.8459 27.4479C45.0379 25.6968 46.6121 27.3706 47.3084 28.4858C47.3313 28.5213 47.3527 28.5577 47.374 28.5915L47.3754 28.5937C47.383 28.6068 47.3903 28.6191 47.3975 28.6329L47.4761 28.7611C47.8135 29.276 48.3501 29.6072 48.9877 29.5923C49.3388 29.5851 49.577 29.4708 49.9249 29.2779L53.5363 27.1828C53.5363 27.1828 53.5406 27.1811 53.5436 27.18C56.7752 25.4073 58.3757 27.1899 59.0599 28.3054C59.1134 28.4025 59.1727 28.4935 59.2361 28.579C59.5736 29.0392 60.0407 29.3396 60.6336 29.3262C61.0245 29.3176 61.4666 29.0824 61.5299 29.0399L65.8604 26.5394C65.8604 26.5394 65.4164 25.8719 64.5065 24.8306C63.6925 23.9009 62.8262 24.3222 62.137 24.6631C61.8489 24.8069 59.7579 25.992 59.7579 25.992C58.6137 26.4644 57.7209 25.9485 57.3705 25.5139C57.335 25.469 57.3026 25.4254 57.2791 25.3839L57.1985 25.2419C57.0735 25.0311 56.9229 24.793 56.7389 24.5566C56.6396 24.429 56.5296 24.3007 56.409 24.1792C55.928 23.6937 55.2689 23.2974 54.3467 23.2972C53.7681 23.2972 53.086 23.4531 52.2793 23.8411Z" fill="white"/>
</svg>
