<svg width="80" height="43" viewBox="0 0 80 43" fill="none" xmlns="http://www.w3.org/2000/svg">
<path d="M32.0674 18.7412H44.1861L44.1862 26.012H39.1021L44.1862 30.665H39.8672L34.8813 26.012V30.665H32.0674V23.2736L40.9528 23.2737V21.5044H32.0674V18.7412Z" fill="white"/>
<path d="M45.4446 30.665H48.4063V18.717H45.4446V30.665Z" fill="white"/>
<path d="M21.7263 27.7811V18.7412H19.4062C18.9867 18.7412 18.6658 19.0565 18.6658 19.4438C18.6658 21.5772 18.6411 27.8538 18.6411 29.938C18.6411 30.3257 18.962 30.665 19.3569 30.665C20.9612 30.665 25.5765 30.665 26.2426 30.665V27.7811H21.7263Z" fill="white"/>
<path d="M27.7728 33.646C28.0446 33.646 30.1177 33.646 30.809 33.646C30.809 33.646 30.809 27.7568 30.809 27.6599C29.8215 27.6599 28.7854 27.6599 27.7728 27.6599C27.7728 29.6472 27.7728 31.6344 27.7728 33.646Z" fill="white"/>
<path d="M23.2071 18.7413C23.2071 18.7901 23.2071 21.7221 23.2071 21.7221C24.5647 21.7221 26.2921 21.7221 27.7728 21.7221C27.7728 23.7827 27.7728 26.1817 27.7728 26.1817C28.4641 26.1817 30.5372 26.1817 30.809 26.1817V19.4687C30.809 19.0806 30.4877 18.7653 30.0934 18.7413C28.6126 18.7413 25.1075 18.7413 23.2071 18.7413Z" fill="white"/>
<path d="M23.2071 23.1759C23.2071 24.1698 23.2072 25.1637 23.2072 26.2056C23.454 26.2056 23.7255 26.2056 23.9723 26.2056C24.6637 26.2056 25.5269 26.2056 26.2182 26.2056C26.2182 26.2056 26.2182 23.2248 26.2182 23.1759C25.2308 23.1759 24.2191 23.1759 23.2071 23.1759ZM25.3298 25.2845C25.0336 25.2845 24.688 25.2845 24.4162 25.2845C24.3178 25.2845 24.2191 25.2845 24.0957 25.2845C24.0957 24.8724 24.0957 24.4851 24.0957 24.073C24.5152 24.073 24.9103 24.073 25.3298 24.073C25.3298 24.097 25.3298 25.2845 25.3298 25.2845Z" fill="white"/>
<path d="M62.9435 27.6599V32.1192C62.9435 32.5069 62.5979 32.822 62.2036 32.822H57.6623V33.549H62.9435H62.9687C63.3387 33.549 63.6592 33.234 63.6592 32.8462V32.822L63.6591 27.6599H62.9435Z" fill="white"/>
<path d="M17.4071 21.6981V17.2384C17.4071 16.8512 17.7033 16.5599 18.0982 16.5599H22.6395C22.6642 16.5599 22.6642 16.5359 22.6642 16.5359V15.8573C22.6642 15.8573 22.6642 15.8333 22.6395 15.8333H17.4071C16.9875 15.8333 16.6666 16.1486 16.6666 16.5599L16.6667 21.6981C16.6667 21.722 16.6913 21.722 16.6913 21.722H17.3825C17.3825 21.722 17.4071 21.722 17.4071 21.6981Z" fill="white"/>
<path d="M61.6599 21.6981V18.7413H49.6897V23.1761V26.1577H57.6623V27.6358H49.6897V30.6166H61.66L61.6599 23.2009H53.6882V21.6981H61.6599Z" fill="white"/>
</svg>
