<svg width="80" height="43" viewBox="0 0 80 43" fill="none" xmlns="http://www.w3.org/2000/svg">
<path d="M31.539 15.8647L29.7982 20.5H28.9179L27.1705 15.8647H27.9841L29.358 19.7197L30.7386 15.8647H31.539ZM32.9351 15.8647V20.5H32.1748V15.8647H32.9351ZM36.341 20.5L35.2739 18.6459H34.6937V20.5H33.9334V15.8647H35.534C35.8897 15.8647 36.1899 15.927 36.4344 16.0515C36.6834 16.176 36.8679 16.3427 36.988 16.5517C37.1125 16.7606 37.1747 16.9941 37.1747 17.252C37.1747 17.5543 37.0858 17.83 36.9079 18.079C36.7345 18.3235 36.4655 18.4903 36.1009 18.5792L37.2481 20.5H36.341ZM34.6937 18.039H35.534C35.8186 18.039 36.032 17.9678 36.1743 17.8255C36.321 17.6833 36.3944 17.4921 36.3944 17.252C36.3944 17.0119 36.3233 16.8251 36.181 16.6917C36.0387 16.5539 35.823 16.485 35.534 16.485H34.6937V18.039ZM41.142 15.8647V16.485H39.9081V20.5H39.1478V16.485H37.9073V15.8647H41.142ZM42.6656 15.8647V18.8193C42.6656 19.1706 42.7568 19.4351 42.9391 19.613C43.1258 19.7908 43.3837 19.8797 43.7127 19.8797C44.0462 19.8797 44.3041 19.7908 44.4864 19.613C44.6731 19.4351 44.7665 19.1706 44.7665 18.8193V15.8647H45.5268V18.806C45.5268 19.1839 45.4446 19.504 45.2801 19.7664C45.1155 20.0287 44.8955 20.2243 44.6198 20.3533C44.3441 20.4822 44.0395 20.5467 43.7061 20.5467C43.3726 20.5467 43.068 20.4822 42.7923 20.3533C42.5211 20.2243 42.3055 20.0287 42.1454 19.7664C41.9853 19.504 41.9053 19.1839 41.9053 18.806V15.8647H42.6656ZM49.3113 19.5529H47.3705L47.037 20.5H46.2433L47.904 15.858H48.7844L50.4451 20.5H49.6448L49.3113 19.5529ZM49.0979 18.9327L48.3442 16.7784L47.5839 18.9327H49.0979ZM51.9275 19.8864H53.4948V20.5H51.1672V15.8647H51.9275V19.8864Z" fill="white"/>
<path d="M33.7048 28.6995H35.7595C36.8919 28.6995 37.6181 29.3941 37.6181 30.3332C37.6181 31.2723 36.901 31.9818 35.7595 31.9818H34.7176V33.875H33.7048V28.6995ZM35.6385 31.2063C36.1824 31.2063 36.6053 30.9332 36.6053 30.3407C36.6053 29.7421 36.1824 29.4751 35.6385 29.4751H34.7176V31.2048H35.6385V31.2063Z" fill="white"/>
<path d="M37.7452 32.0042C37.7452 30.9091 38.4623 30.0225 39.6253 30.0225C40.9767 30.0225 41.6264 31.1026 41.4762 32.2638H38.6738C38.7412 32.8848 39.066 33.2689 39.6789 33.2689C40.1095 33.2689 40.3807 33.0693 40.5247 32.7588H41.4379C41.2188 33.5569 40.5768 33.9859 39.6559 33.9859C38.3949 33.9859 37.7452 33.1143 37.7452 32.0042ZM40.5768 31.5752C40.4941 31.0651 40.1845 30.7396 39.6176 30.7396C39.089 30.7396 38.7948 31.0726 38.6967 31.5752H40.5768Z" fill="white"/>
<path d="M41.9851 30.1335H42.9137V30.8146C43.0868 30.4306 43.5036 30.105 44.1149 30.105H44.1686V30.9556H44.1149C43.1711 30.9556 42.9366 31.5992 42.9366 32.3087V33.8764H41.9851V30.1335Z" fill="white"/>
<path d="M44.5454 30.1339H45.4739V30.7189C45.6854 30.2824 46.1236 30.0378 46.6063 30.0378C47.1947 30.0378 47.6038 30.2899 47.8076 30.7324C48.065 30.3034 48.5323 30.0378 49.0395 30.0378C49.9236 30.0378 50.3833 30.5704 50.3833 31.4795V33.8753H49.4318V31.643C49.4318 31.1105 49.2127 30.7999 48.7438 30.7999C48.2381 30.7999 47.9439 31.199 47.9439 31.88V33.8767H46.9847V31.643C46.9847 31.1105 46.7733 30.7999 46.3044 30.7999C45.7911 30.7999 45.497 31.199 45.497 31.88V33.8767H44.5454V30.1339Z" fill="white"/>
<path d="M50.8737 32.0041C50.8737 30.8579 51.5004 30.0298 52.5653 30.0298C53.1092 30.0298 53.5169 30.2744 53.7743 30.6959V30.1333H54.7026V33.8747H53.7743V33.3137C53.5169 33.7277 53.1092 33.9798 52.5653 33.9798C51.5004 33.9798 50.8737 33.1502 50.8737 32.0041ZM52.792 33.2177C53.4187 33.2177 53.759 32.7226 53.759 32.0055C53.759 31.2885 53.4187 30.7934 52.792 30.7934C52.1653 30.7934 51.8252 31.2885 51.8252 32.0055C51.8252 32.7226 52.173 33.2177 52.792 33.2177Z" fill="white"/>
<path d="M55.6835 30.8729H55.1012V30.1333H55.6835V29.1282H56.6424V30.1333H57.4057V30.8729H56.6424V33.8747H55.6835V30.8729Z" fill="white"/>
<path d="M57.571 32.0041C57.571 30.8579 58.1976 30.0298 59.2626 30.0298C59.8067 30.0298 60.2141 30.2744 60.4715 30.6959V30.1333H61.4001V33.8747H60.4715V33.3137C60.2141 33.7277 59.8067 33.9798 59.2626 33.9798C58.1976 33.9798 57.571 33.1502 57.571 32.0041ZM59.4893 33.2177C60.1159 33.2177 60.4562 32.7226 60.4562 32.0055C60.4562 31.2885 60.1159 30.7934 59.4893 30.7934C58.8627 30.7934 58.5225 31.2885 58.5225 32.0055C58.5225 32.7226 58.8703 33.2177 59.4893 33.2177Z" fill="white"/>
<path d="M29.675 29.4811L25.02 23.4999L20.3665 29.4811C19.5805 30.4937 19.274 31.3742 19.274 32.3313C19.274 33.7939 20.0218 35.1066 21.361 36.0247L25.0185 38.4999L28.6775 36.0247C30.0182 35.1066 30.7644 33.7925 30.7644 32.3313C30.7659 31.3757 30.4595 30.4937 29.675 29.4811ZM24.2738 35.7817V36.6638L22.0336 35.1636C20.981 34.4705 20.3865 33.4384 20.3865 32.3883C20.3865 31.8452 20.5397 31.3202 20.8078 30.8312C20.9228 31.1492 21.1143 31.4687 21.5357 31.9383L23.9106 34.526C24.2922 34.9566 24.2738 35.2191 24.2738 35.7817ZM22.5117 31.3757C21.9172 30.7381 21.8038 30.3826 21.8038 30.0076C21.8038 29.6505 21.8804 29.3325 22.3401 28.7504L25.0215 25.3376L27.7029 28.7504C28.1443 29.3325 28.2393 29.6505 28.2393 30.0076C28.2393 30.3826 28.1243 30.7397 27.5314 31.3757L25.02 34.1135L22.5117 31.3757ZM28.0079 35.1636L25.7677 36.6638V35.7817C25.7677 35.2191 25.7493 34.9566 26.1324 34.5245L28.5074 31.9368C28.9288 31.4687 29.1203 31.1492 29.2352 30.8297C29.5034 31.3172 29.6566 31.8422 29.6566 32.3868C29.6551 33.4384 29.0621 34.469 28.0079 35.1636Z" fill="white"/>
</svg>
