<svg width="80" height="43" viewBox="0 0 80 43" fill="none" xmlns="http://www.w3.org/2000/svg">
<path d="M31.3648 15.1045L29.6241 19.7397H28.7437L26.9963 15.1045H27.81L29.1839 18.9594L30.5645 15.1045H31.3648ZM32.761 15.1045V19.7397H32.0006V15.1045H32.761ZM36.1669 19.7397L35.0998 17.8856H34.5195V19.7397H33.7592V15.1045H35.3599C35.7156 15.1045 36.0157 15.1667 36.2602 15.2912C36.5092 15.4157 36.6938 15.5824 36.8138 15.7914C36.9383 16.0004 37.0006 16.2338 37.0006 16.4917C37.0006 16.7941 36.9116 17.0697 36.7338 17.3187C36.5604 17.5633 36.2914 17.73 35.9268 17.8189L37.0739 19.7397H36.1669ZM34.5195 17.2787H35.3599C35.6444 17.2787 35.8579 17.2076 36.0001 17.0653C36.1469 16.923 36.2202 16.7318 36.2202 16.4917C36.2202 16.2516 36.1491 16.0649 36.0068 15.9315C35.8645 15.7936 35.6489 15.7247 35.3599 15.7247H34.5195V17.2787ZM40.9678 15.1045V15.7247H39.734V19.7397H38.9736V15.7247H37.7331V15.1045H40.9678ZM42.4915 15.1045V18.059C42.4915 18.4103 42.5826 18.6749 42.7649 18.8527C42.9517 19.0306 43.2095 19.1195 43.5386 19.1195C43.872 19.1195 44.1299 19.0306 44.3122 18.8527C44.499 18.6749 44.5923 18.4103 44.5923 18.059V15.1045H45.3527V18.0457C45.3527 18.4236 45.2704 18.7438 45.1059 19.0061C44.9414 19.2684 44.7213 19.4641 44.4456 19.593C44.1699 19.722 43.8654 19.7864 43.5319 19.7864C43.1984 19.7864 42.8939 19.722 42.6182 19.593C42.347 19.4641 42.1313 19.2684 41.9712 19.0061C41.8112 18.7438 41.7311 18.4236 41.7311 18.0457V15.1045H42.4915ZM49.1371 18.7927H47.1963L46.8628 19.7397H46.0692L47.7299 15.0978H48.6102L50.2709 19.7397H49.4706L49.1371 18.7927ZM48.9237 18.1724L48.1701 16.0182L47.4097 18.1724H48.9237ZM51.7533 19.1262H53.3207V19.7397H50.993V15.1045H51.7533V19.1262Z" fill="white"/>
<path d="M10.2029 22.7397V27.044H19.9699V24.7371L10.2029 22.7397Z" fill="#494949"/>
<path d="M31.0751 27.044L19.9699 22.7397V24.7471L31.0751 27.044Z" fill="white"/>
<path d="M19.9699 27.044H31.0751L19.9699 24.7371V27.044Z" fill="white"/>
<path d="M56.591 32.4467L31.095 27.0439L56.591 35.5226V32.4467Z" fill="white"/>
<path d="M13.6882 35.5228C13.7482 35.1733 13.7482 34.8437 13.7482 34.5042C13.7482 33.5654 13.4885 32.9762 13.2588 32.7166C12.9292 32.3371 12.6296 32.3071 12.2502 32.3071H11.601V36.9309C11.601 36.9309 11.5111 36.9409 11.9006 36.9409C13.3387 36.9309 13.5884 36.0621 13.6882 35.5228ZM14.3773 32.2172C14.9565 32.8564 15.1463 33.895 15.1463 34.5241C15.1463 36.881 14.2774 37.7399 12.35 37.7399H10.2029V31.4882H12.35C13.0091 31.4882 13.7781 31.5681 14.3773 32.2172ZM18.5617 35.4829C18.1323 35.5228 18.0225 35.5228 17.8427 35.5728C17.5031 35.6526 17.2035 35.8424 17.2035 36.3018C17.2035 36.3917 17.2135 36.4915 17.2335 36.5914C17.3234 36.891 17.5431 36.9809 17.7928 36.9809C17.8926 36.9809 18.1523 36.9709 18.332 36.8011C18.5517 36.6014 18.5617 36.3218 18.5617 36.122V35.4829ZM19.3207 33.5155C19.7002 33.8451 19.6902 34.3144 19.6902 34.644V37.6H18.5118L18.5018 37.3204C18.5018 37.3204 18.0924 37.7099 17.2135 37.7099C16.854 37.7099 16.4845 37.61 16.2548 37.3404C16.0751 37.1506 15.9552 36.8311 15.9552 36.4116C15.9552 36.2419 15.9552 35.7226 16.4845 35.363C16.8141 35.1433 17.1037 35.0834 17.8627 34.9935L18.5617 34.9236V34.5741C18.5617 34.3644 18.5517 34.1846 18.4719 34.0448C18.332 33.8051 18.0424 33.8051 17.9426 33.8051C17.643 33.8051 17.4832 33.9449 17.4133 34.0348C17.2735 34.2046 17.2635 34.4443 17.2535 34.624H16.1749C16.1749 34.4243 16.1649 34.1546 16.3147 33.895C16.6543 33.2858 17.2535 33.146 18.0524 33.146C18.3121 33.146 18.4119 33.166 18.6816 33.2159C18.9412 33.2658 19.121 33.3357 19.3207 33.5155ZM27.8094 35.4829C27.39 35.5228 27.2701 35.5228 27.0904 35.5728C26.7508 35.6526 26.4512 35.8424 26.4512 36.3018C26.4512 36.3917 26.4612 36.4915 26.4812 36.5914C26.5711 36.891 26.7908 36.9809 27.0304 36.9809C27.1403 36.9809 27.4 36.9709 27.5697 36.8011C27.7894 36.6014 27.7994 36.3218 27.7994 36.122V35.4829H27.8094ZM28.5684 33.5155C28.9479 33.8451 28.9379 34.3144 28.9379 34.644V37.6H27.7695L27.7595 37.3204C27.7595 37.3204 27.34 37.7099 26.4712 37.7099C26.1217 37.7099 25.7422 37.61 25.5125 37.3404C25.3427 37.1506 25.2129 36.8311 25.2129 36.4116C25.2129 36.2419 25.2229 35.7226 25.7422 35.363C26.0717 35.1433 26.3513 35.0834 27.1203 34.9935L27.8194 34.9236V34.5741C27.8194 34.3644 27.8094 34.1846 27.7395 34.0448C27.5897 33.8051 27.3101 33.8051 27.2102 33.8051C26.9106 33.8051 26.7408 33.9449 26.6809 34.0348C26.5411 34.2046 26.5311 34.4443 26.5211 34.624H25.4326C25.4326 34.4243 25.4226 34.1546 25.5724 33.895C25.9119 33.2858 26.5111 33.146 27.3101 33.146C27.5697 33.146 27.6696 33.166 27.9292 33.2159C28.1889 33.2658 28.3687 33.3357 28.5684 33.5155ZM39.7535 36.0621C39.7734 35.8224 39.7934 35.5927 39.7934 35.3431C39.7934 35.1533 39.7834 34.9636 39.7635 34.7738C39.7435 34.5042 39.6836 33.8151 39.0244 33.8151C38.8846 33.8151 38.7748 33.845 38.645 33.905C38.2954 34.1147 38.2355 34.5541 38.2155 34.7838C38.1856 35.0734 38.1756 35.3131 38.1756 35.4829C38.1756 35.6726 38.1856 35.8723 38.2055 36.0721C38.2155 36.3417 38.2854 37.0707 38.9845 37.0707C39.0944 37.0707 39.2142 37.0408 39.3141 36.9909C39.6836 36.7811 39.7335 36.3018 39.7535 36.0621ZM40.6223 33.7751C41.0517 34.2645 41.0517 34.9835 41.0517 35.363C41.0517 35.7625 41.0517 36.5714 40.5624 37.1007C40.0131 37.7099 39.2841 37.7099 38.9945 37.7099C38.6849 37.7099 38.5151 37.6899 38.2055 37.6C37.137 37.2905 36.9372 36.3917 36.9372 35.5428C36.9372 35.0934 36.9372 34.2146 37.5564 33.6653C38.1057 33.1759 38.8047 33.156 39.1043 33.156C39.364 33.156 40.103 33.156 40.6223 33.7751ZM45.5458 34.5641C45.5358 34.2445 45.5358 33.855 45.2661 33.5455C45.1463 33.4056 44.8567 33.1859 44.2774 33.1859C43.5884 33.1859 43.3087 33.4855 42.9991 33.7652V33.2758H41.7708V37.61H42.9991V34.6839C43.0091 34.4542 43.0191 34.1546 43.3786 33.9849C43.4585 33.9549 43.5784 33.915 43.7182 33.915C44.2475 33.915 44.2974 34.3644 44.3074 34.5042C44.3174 34.644 44.3174 34.7838 44.3174 34.9636V37.61H45.5458V34.5641ZM24.3041 34.5641C24.2941 34.2445 24.2941 33.855 24.0245 33.5455C23.9046 33.4056 23.625 33.1859 23.0358 33.1859C22.3467 33.1859 22.0671 33.4855 21.7575 33.7652V33.2758H20.5291V37.61H21.7575V34.6839C21.7675 34.4542 21.7774 34.1546 22.137 33.9849C22.2169 33.9549 22.3367 33.915 22.4665 33.915C23.0058 33.915 23.0458 34.3644 23.0557 34.5042C23.0757 34.644 23.0757 34.7838 23.0757 34.9636V37.61H24.3041V34.5641ZM29.8467 33.2658H31.0751V33.7751C31.3147 33.5654 31.7242 33.1859 32.4632 33.1859C33.3021 33.1859 33.5418 33.6953 33.6017 33.855C34.101 33.3757 34.4406 33.1859 34.9199 33.1859C35.1496 33.1859 35.3194 33.2259 35.4692 33.2858C36.1283 33.5355 36.1483 34.1247 36.1583 34.5042V37.6H34.9099V34.7738C34.9 34.4642 34.89 34.2945 34.8101 34.1546C34.7901 34.1147 34.6703 33.905 34.3607 33.905C34.2508 33.905 34.0511 33.9349 33.9612 33.9849C33.6217 34.1546 33.6017 34.4343 33.6017 34.664V37.5901H32.3833V34.7838C32.3833 34.4542 32.3933 33.895 31.834 33.895C31.7142 33.895 31.4945 33.9349 31.3846 33.9949C31.075 34.1846 31.0751 34.4642 31.0751 34.8437V37.5901H29.8467V33.2658Z" fill="white"/>
<path d="M31.085 27.0439L56.581 27.0539V32.4467L31.085 27.0439Z" fill="white"/>
<path d="M56.581 27.054V32.4468L70.123 35.5327L70.113 27.054H56.581Z" fill="#494949"/>
</svg>
