<svg width="80" height="43" viewBox="0 0 80 43" fill="none" xmlns="http://www.w3.org/2000/svg">
<path d="M23.0568 32.7305C18.6416 32.7709 15.1179 29.2803 15.1111 24.7493C15.1044 20.2033 18.6553 16.7355 23.0594 16.7397C27.3921 16.7439 30.9776 20.1885 30.9642 24.7663C30.9511 29.2708 27.4342 32.7625 23.0568 32.7305ZM18.081 24.8258C18.1077 25.0953 18.1373 25.4474 18.1797 25.798C18.1988 25.9552 18.2392 26.1105 18.2776 26.2648C18.8025 28.375 20.4947 29.9357 22.6387 30.0899C24.3335 30.2119 25.7367 29.6242 26.7975 28.3008C28.2258 26.5192 28.3879 23.8357 27.2285 21.8057C25.8409 19.3762 22.7254 18.6055 20.4015 20.1532C18.777 21.2351 18.1333 22.8458 18.081 24.8258Z" fill="white"/>
<path d="M55.9863 16.7527C60.2775 16.6884 63.9158 20.1074 63.9085 24.7489C63.9012 29.326 60.3866 32.6355 56.2065 32.7359C51.5889 32.8467 48.0424 29.2505 48.0547 24.7151C48.067 20.1926 51.6022 16.698 55.9863 16.7527ZM60.9761 24.7505C60.9025 24.2536 60.8638 23.7485 60.7492 23.2613C60.2363 21.0816 58.5307 19.5833 56.5106 19.3977C54.7592 19.2368 53.2623 19.7992 52.2117 21.2087C50.7378 23.186 50.6198 25.3563 51.7265 27.5342C53.2009 30.4359 57.1299 31.0073 59.406 28.6872C60.4703 27.6022 60.9139 26.2572 60.9761 24.7505Z" fill="white"/>
<path d="M31.6032 17.1635C31.8073 17.1635 31.9824 17.1635 32.1575 17.1635C33.9828 17.1636 35.8081 17.1677 37.6333 17.159C37.8779 17.1578 37.9748 17.2087 37.9662 17.4787C37.9455 18.1248 37.9485 18.7724 37.9658 19.4188C37.9728 19.6788 37.9134 19.7837 37.631 19.7645C37.2458 19.7384 36.8575 19.758 36.4199 19.758C37.636 22.6369 38.8343 25.4735 40.0481 28.3469C41.2201 25.474 42.3772 22.6378 43.5498 19.7632H42.0478V17.1811H47.0771C47.0243 17.7949 47.1833 18.4026 46.9224 19.0084C45.6563 21.9473 44.4093 24.8943 43.1548 27.8381C42.4998 29.3751 41.8377 30.9091 41.1941 32.4509C41.0984 32.6802 40.9756 32.7298 40.7434 32.7376C39.7577 32.7706 38.9466 32.4272 38.3827 31.6184C38.1282 31.2531 37.9612 30.8226 37.7817 30.4099C36.2822 26.9633 34.7866 23.5149 33.299 20.0631C33.1952 19.8222 33.0678 19.7304 32.8059 19.7512C32.48 19.777 32.1505 19.7521 31.8229 19.7608C31.6685 19.7648 31.5989 19.7238 31.6003 19.5543C31.6068 18.775 31.6032 17.9956 31.6032 17.1635Z" fill="white"/>
</svg>
